<?xml version="1.0" encoding="UTF-8"?>
<svg id="Capa_2" data-name="Capa 2" xmlns="http://www.w3.org/2000/svg" viewBox="0 0 376.54 76.81">
  <defs>
    <style>
      .cls-1 {
        fill: #bfff0a;
      }

      .cls-1, .cls-2 {
        stroke-width: 0px;
      }

      .cls-2 {
        fill: #1c1c1c;
      }
    </style>
  </defs>
  <g id="a">
    <g>
      <path class="cls-2" d="m14.06,55.14h-7.71l-2.01,21.03H0L7.19,2.3h6.34l7.29,73.87h-4.76l-2.01-21.03Zm-7.29-3.7h6.87l-3.38-35.09h-.11l-3.38,35.09Z"/>
      <path class="cls-2" d="m29.7,2.3v70.17h9.19v3.7h-14.06V2.3h4.86Z"/>
      <path class="cls-2" d="m51.89,46.27h8.98v29.91h-2.54l-.63-2.43c-.92.99-1.9,1.74-2.96,2.27-1.06.53-2.04.79-2.96.79h-.85c-.99,0-1.99-.18-3.01-.53-1.02-.35-1.92-.92-2.69-1.69-.78-.77-1.41-1.78-1.9-3.01-.49-1.23-.74-2.7-.74-4.39V11.29c0-1.69.25-3.15.74-4.39.49-1.23,1.13-2.24,1.9-3.01s1.67-1.34,2.69-1.69c1.02-.35,2.02-.53,3.01-.53h1.59c.99,0,1.97.18,2.96.53.99.35,1.88.92,2.69,1.69.81.78,1.46,1.78,1.96,3.01.49,1.23.74,2.7.74,4.39v20.82h-4.86V12.03c0-2.25-.41-3.86-1.22-4.81-.81-.95-1.71-1.43-2.69-1.43h-.74c-.99,0-1.89.48-2.69,1.43-.81.95-1.22,2.55-1.22,4.81v54.43c0,2.26.4,3.86,1.22,4.81.81.95,1.71,1.43,2.69,1.43h.74c.99,0,1.88-.48,2.69-1.43.81-.95,1.22-2.55,1.22-4.81v-16.06h-4.12v-4.12Z"/>
      <path class="cls-2" d="m74.93,76.81c-.99,0-1.97-.18-2.96-.53-.99-.35-1.89-.92-2.69-1.69-.81-.77-1.46-1.78-1.96-3.01-.49-1.23-.74-2.7-.74-4.39V2.3h4.86v64.15c0,2.26.4,3.86,1.22,4.81.81.95,1.71,1.43,2.69,1.43h.74c.99,0,1.88-.48,2.69-1.43.81-.95,1.22-2.55,1.22-4.81V2.3h4.86v64.89c0,1.69-.25,3.15-.74,4.39-.49,1.23-1.13,2.24-1.9,3.01-.78.78-1.66,1.34-2.64,1.69-.99.35-2.01.53-3.06.53h-1.58Z"/>
      <path class="cls-2" d="m105.75,76.17l-11.17-59.29h-.11v59.29h-4.12V2.3h5.6l10.78,58.65h.11V2.3h4.54v73.87h-5.64Z"/>
      <path class="cls-2" d="m129.03,55.14h-7.71l-2.01,21.03h-4.33L122.16,2.3h6.34l7.29,73.87h-4.76l-2.01-21.03Zm-7.29-3.7h6.87l-3.38-35.09h-.11l-3.38,35.09Z"/>
      <path class="cls-2" d="m153.02,32.1V12.03c0-2.25-.4-3.86-1.2-4.81-.8-.95-1.69-1.43-2.66-1.43h-.73c-.97,0-1.86.48-2.66,1.43-.8.95-1.2,2.55-1.2,4.81v10.46c0,3.31.7,6.25,2.11,8.82,1.41,2.57,2.94,5.07,4.6,7.5,1.65,2.43,3.19,4.93,4.6,7.5,1.41,2.57,2.11,5.55,2.11,8.93v11.94c0,1.69-.25,3.15-.74,4.39-.5,1.23-1.13,2.24-1.91,3.01-.78.78-1.67,1.34-2.66,1.69-.99.35-2.02.53-3.08.53h-1.49c-.99,0-2-.18-3.03-.53-1.03-.35-1.95-.92-2.76-1.69-.82-.77-1.47-1.78-1.97-3.01-.5-1.23-.74-2.7-.74-4.39v-20.82h4.54v20.08c0,2.26.43,3.86,1.3,4.81s1.79,1.43,2.77,1.43h.73c.97,0,1.9-.48,2.77-1.43s1.31-2.55,1.31-4.81v-10.57c0-2.18-.34-4.19-1-6.02-.67-1.83-1.5-3.58-2.48-5.23-.99-1.65-2.06-3.28-3.22-4.86-1.16-1.58-2.24-3.22-3.22-4.91-.99-1.69-1.81-3.49-2.48-5.39-.67-1.9-1-3.98-1-6.24v-11.94c0-1.69.25-3.15.74-4.39.5-1.23,1.13-2.24,1.91-3.01.78-.77,1.68-1.34,2.71-1.69,1.03-.35,2.04-.53,3.03-.53h1.17c.99,0,1.98.18,2.98.53.99.35,1.9.92,2.71,1.69.82.78,1.47,1.78,1.97,3.01.5,1.23.75,2.7.75,4.39v20.82h-4.54Z"/>
      <path class="cls-2" d="m198.46,31.05c0,2.26-.35,3.93-1.06,5.02-.71,1.09-1.59,1.82-2.64,2.17,1.06.28,1.94.97,2.64,2.06.7,1.09,1.06,2.77,1.06,5.02v20.18c0,1.9-.3,3.52-.9,4.86-.6,1.34-1.39,2.43-2.38,3.28-.99.85-2.11,1.48-3.38,1.9-1.27.42-2.57.63-3.91.63h-12.47V2.3h12.47c1.34,0,2.64.21,3.91.63,1.27.42,2.39,1.08,3.38,1.96.99.88,1.78,2.03,2.38,3.43.6,1.41.9,3.07.9,4.97v17.75Zm-11.1,3.7c1.13,0,1.69-1.41,1.69-4.23v-15.85c0-3.03-.63-4.54-1.9-4.54h-2.32v24.62h2.54Zm1.69,11.31c0-2.89-.6-4.33-1.8-4.33h-2.43v26.63h2.22c1.34,0,2.01-1.44,2.01-4.33v-17.97Z"/>
      <path class="cls-2" d="m215.9,57.15h-5.07l-1.48,19.02h-8.14l6.45-73.87h11.94l6.87,73.87h-8.98l-1.59-19.02Zm-4.44-7.08h3.91l-1.8-22.09h-.32l-1.8,22.09Z"/>
      <path class="cls-2" d="m245.54,76.17l-8.18-44.6h-.11v44.6h-7.93V2.3h10.46l7.4,43.54h.11V2.3h8.67v73.87h-10.42Z"/>
      <path class="cls-2" d="m259.97,76.17V2.3h12.47c1.27,0,2.54.21,3.8.63s2.41,1.08,3.43,1.96c1.02.88,1.83,2.01,2.43,3.38.6,1.37.9,3.01.9,4.91v52.1c0,1.9-.3,3.54-.9,4.91-.6,1.37-1.41,2.5-2.43,3.38-1.02.88-2.17,1.53-3.43,1.96s-2.54.63-3.8.63h-12.47Zm9.41-66.05v58.23h2.32c.63,0,1.11-.33,1.43-1,.32-.67.48-1.81.48-3.43V14.56c0-1.62-.16-2.76-.48-3.43-.32-.67-.79-1-1.43-1h-2.32Z"/>
      <path class="cls-2" d="m300.55,57.15h-5.07l-1.48,19.02h-8.14l6.45-73.87h11.94l6.87,73.87h-8.98l-1.59-19.02Zm-4.44-7.08h3.91l-1.8-22.09h-.32l-1.8,22.09Z"/>
      <path class="cls-2" d="m327.6,32V14.03c0-1.62-.16-2.78-.48-3.49-.32-.7-.79-1.06-1.43-1.06h-.42c-.63,0-1.11.33-1.43,1-.32.67-.48,1.85-.48,3.54v8.35c0,2.4.33,4.51,1,6.34.67,1.83,1.51,3.54,2.54,5.13,1.02,1.58,2.11,3.1,3.28,4.54,1.16,1.45,2.25,2.98,3.28,4.6,1.02,1.62,1.87,3.35,2.54,5.18.67,1.83,1,3.95,1,6.34v11.31c0,1.9-.3,3.56-.9,4.97-.6,1.41-1.39,2.55-2.38,3.43-.99.88-2.11,1.53-3.38,1.96s-2.57.63-3.91.63h-1.69c-1.27,0-2.55-.21-3.86-.63-1.3-.42-2.47-1.07-3.49-1.96-1.02-.88-1.85-2.02-2.48-3.43-.63-1.41-.95-3.06-.95-4.97v-19.45h8.67v18.07c0,1.62.21,2.78.62,3.49.41.71,1,1.06,1.76,1.06h.31c1.52,0,2.28-1.51,2.28-4.54v-8.46c0-2.32-.34-4.4-1-6.23-.67-1.83-1.52-3.54-2.54-5.13-1.02-1.58-2.11-3.1-3.28-4.54-1.16-1.44-2.26-2.96-3.28-4.54-1.02-1.58-1.87-3.31-2.54-5.18-.67-1.87-1-4-1-6.39v-11.31c0-1.9.3-3.56.9-4.97.6-1.41,1.42-2.55,2.44-3.43,1.03-.88,2.18-1.53,3.45-1.96,1.27-.42,2.58-.63,3.93-.63h1.06c1.27,0,2.55.21,3.82.63,1.27.42,2.41,1.08,3.4,1.96.99.88,1.79,2.03,2.39,3.43.6,1.41.9,3.06.9,4.97v19.34h-8.67Z"/>
    </g>
    <path class="cls-1" d="m376.54,12.18v7.24l-10.78-.58,5.93,9.05-6.25,3.62-4.94-9.71-4.94,9.63-6.17-3.54,5.93-9.13-10.86.58v-7.16l10.86.58-5.93-9.13,6.17-3.62,4.94,9.71,4.94-9.71,6.25,3.7-5.93,9.05,10.78-.58Z"/>
  </g>
</svg>