<?xml version="1.0" encoding="UTF-8"?>
<svg id="Capa_2" data-name="Capa 2" xmlns="http://www.w3.org/2000/svg" viewBox="0 0 32.46 32.46">
  <defs>
    <style>
      .cls-1 {
        stroke-width: 0px;
      }
    </style>
  </defs>
  <g id="a">
    <g>
      <path class="cls-1" d="m24.67,17.01c.56-.56.56-1.47,0-2.03s-1.47-.56-2.03,0l-4.97,4.97v-10.92c0-.79-.64-1.44-1.44-1.44s-1.44.64-1.44,1.44v10.96l-4.97-4.97c-.56-.56-1.47-.56-2.03,0-.28.28-.42.65-.42,1.02s.14.74.42,1.02l8.42,8.42,8.46-8.46Z"/>
      <path class="cls-1" d="m0,16.23C0,7.28,7.28,0,16.23,0s16.23,7.28,16.23,16.23-7.28,16.23-16.23,16.23S0,25.18,0,16.23Zm29.58,0c0-7.36-5.99-13.36-13.36-13.36S2.87,8.86,2.87,16.23s5.99,13.36,13.36,13.36,13.36-5.99,13.36-13.36Z"/>
    </g>
  </g>
</svg>