<?xml version="1.0" encoding="UTF-8"?>
<svg id="Capa_2" data-name="Capa 2" xmlns="http://www.w3.org/2000/svg" viewBox="0 0 192.91 64.61">
  <defs>
    <style>
      .cls-1 {
        fill: #1c1c1c;
        stroke-width: 0px;
      }
    </style>
  </defs>
  <g id="a">
    <g>
      <path class="cls-1" d="m15.72,25.35c0,1.94-.3,3.38-.91,4.32-.61.94-1.36,1.56-2.27,1.86.91.24,1.67.83,2.27,1.77.6.94.91,2.38.91,4.32v18.72c0,1.33-.21,2.48-.64,3.45-.42.97-.97,1.77-1.64,2.41-.67.63-1.42,1.11-2.27,1.41-.85.3-1.73.45-2.64.45H0V.54h8.54c.91,0,1.79.15,2.64.45.85.3,1.6.79,2.27,1.46.67.67,1.21,1.53,1.64,2.59.42,1.06.64,2.32.64,3.77v16.54Zm-7,4.54c1.88,0,2.82-1.6,2.82-4.82v-15.63c0-1.94-.35-3.32-1.04-4.13-.7-.82-1.47-1.23-2.32-1.23h-4v25.81h4.54Zm2.82,8c0-3.21-.94-4.82-2.82-4.82h-4.54v27.44h4c.85,0,1.62-.39,2.32-1.18.7-.79,1.04-2,1.04-3.63v-17.81Z"/>
      <path class="cls-1" d="m34.89,26.26c0,1.94-.3,3.38-.91,4.32-.61.94-1.36,1.56-2.27,1.86.91.24,1.67.83,2.27,1.77.6.94.91,2.38.91,4.32v15.72c0,3.27.11,5.6.32,7,.21,1.39.38,2.33.5,2.82h-4.18c-.3-.79-.51-1.91-.64-3.36-.12-1.46-.18-3.6-.18-6.45v-15.36c0-3.27-.94-4.91-2.82-4.91h-4.54v30.08h-4.18V.54h8.54c1.94,0,3.62.68,5.04,2.04,1.42,1.36,2.13,3.44,2.13,6.22v17.45Zm-7,4.54c1.88,0,2.82-1.6,2.82-4.81V9.45c0-1.94-.35-3.32-1.04-4.13-.7-.82-1.47-1.23-2.32-1.23h-4v26.71h4.54Z"/>
      <path class="cls-1" d="m43.43,4.09v26.62h6.54v3.18h-6.54v26.62h8.81v3.54h-12.99V.54h12.63v3.54h-8.45Z"/>
      <path class="cls-1" d="m65.6,45.98h-6.63l-1.73,18.08h-3.73L59.7.54h5.45l6.27,63.52h-4.09l-1.73-18.08Zm-6.27-3.18h5.91l-2.91-30.17h-.09l-2.91,30.17Z"/>
      <path class="cls-1" d="m80.96,30.98l9.36,33.08h-3.91l-8.36-27.44h-.09v27.44h-4.18V.54h4.18v26.53h.09L86.69.54h3.82l-9.54,30.44Z"/>
      <path class="cls-1" d="m92.14,64.06V.54h10.72c1.09,0,2.18.18,3.27.54,1.09.36,2.07.92,2.95,1.68.88.76,1.57,1.73,2.09,2.91.51,1.18.77,2.59.77,4.23v44.8c0,1.64-.26,3.04-.77,4.23-.52,1.18-1.21,2.15-2.09,2.91-.88.76-1.86,1.32-2.95,1.68-1.09.36-2.18.54-3.27.54h-10.72Zm8.09-56.79v50.07h2c.54,0,.95-.29,1.23-.86.27-.57.41-1.56.41-2.95V11.09c0-1.39-.14-2.38-.41-2.95s-.68-.86-1.23-.86h-2Z"/>
      <path class="cls-1" d="m123.4,64.61c-1.09,0-2.18-.18-3.27-.54s-2.08-.92-2.95-1.68c-.88-.76-1.58-1.74-2.09-2.95-.52-1.21-.77-2.64-.77-4.27V9.45c0-1.63.26-3.06.77-4.27.51-1.21,1.21-2.2,2.09-2.96.88-.76,1.86-1.32,2.95-1.68s2.18-.54,3.27-.54h1.64c1.15,0,2.27.18,3.36.54,1.09.36,2.06.92,2.91,1.68.85.76,1.53,1.74,2.04,2.96.51,1.21.77,2.63.77,4.27v45.71c0,1.63-.26,3.06-.77,4.27-.52,1.21-1.2,2.2-2.04,2.95-.85.76-1.82,1.32-2.91,1.68-1.09.36-2.21.54-3.36.54h-1.64Zm.64-57.88c-1.09,0-1.64,1.3-1.64,3.91v43.34c0,2.61.54,3.91,1.64,3.91h.36c1.09,0,1.64-1.3,1.64-3.91V10.63c0-2.6-.54-3.91-1.64-3.91h-.36Z"/>
      <path class="cls-1" d="m140.29,64.06L135.66.54h7.63l2.36,35.35h.27l3.09-35.35h6.36l3.45,35.35h.18l2.36-35.35h7.09l-4.72,63.52h-7.81l-3.63-31.26h-.09l-3.09,31.26h-8.81Z"/>
      <path class="cls-1" d="m183.95,64.06l-7.04-38.35h-.09v38.35h-6.82V.54h9l6.36,37.44h.09V.54h7.45v63.52h-8.96Z"/>
    </g>
  </g>
</svg>