<?xml version="1.0" encoding="UTF-8"?>
<svg id="Capa_2" data-name="Capa 2" xmlns="http://www.w3.org/2000/svg" viewBox="0 0 87.55 33.73">
  <defs>
    <style>
      .cls-1 {
        fill: #bfff0a;
        stroke-width: 0px;
      }
    </style>
  </defs>
  <g id="fondos">
    <g>
      <path class="cls-1" d="m6.75,13.23c0,1.01-.13,1.76-.39,2.25-.26.49-.59.81-.98.97.39.13.72.44.98.92.26.49.39,1.24.39,2.25v9.77c0,.7-.09,1.3-.27,1.8-.18.51-.42.93-.7,1.26s-.61.58-.98.73c-.37.16-.74.24-1.13.24H0V.28h3.67c.39,0,.77.08,1.13.24.36.16.69.41.98.76.29.35.52.8.7,1.35.18.55.27,1.21.27,1.97v8.63Zm-3,2.37c.81,0,1.21-.84,1.21-2.51V4.93c0-1.01-.15-1.73-.45-2.16-.3-.43-.63-.64-1-.64h-1.72v13.47h1.95Zm1.21,4.17c0-1.68-.4-2.51-1.21-2.51h-1.95v14.32h1.72c.36,0,.7-.21,1-.62.3-.41.45-1.04.45-1.9v-9.3Z"/>
      <path class="cls-1" d="m15.58,13.71c0,1.01-.13,1.76-.39,2.25-.26.49-.58.81-.98.97.39.13.71.44.98.92.26.49.39,1.24.39,2.25v8.21c0,1.71.04,2.93.14,3.65.09.73.16,1.22.21,1.47h-1.8c-.13-.41-.22-1-.27-1.75-.05-.76-.08-1.88-.08-3.37v-8.02c0-1.71-.4-2.56-1.21-2.56h-1.95v15.7h-1.79V.28h3.67c.83,0,1.55.36,2.17,1.07.61.71.92,1.79.92,3.25v9.11Zm-3.01,2.37c.81,0,1.21-.84,1.21-2.51V4.93c0-1.01-.15-1.73-.45-2.16-.3-.43-.63-.64-1-.64h-1.72v13.95h1.95Z"/>
      <path class="cls-1" d="m19.83,2.13v13.9h2.81v1.66h-2.81v13.9h3.79v1.85h-5.58V.28h5.43v1.85h-3.63Z"/>
      <path class="cls-1" d="m29.94,24h-2.85l-.74,9.44h-1.6L27.4.28h2.34l2.69,33.16h-1.76l-.74-9.44Zm-2.69-1.66h2.54l-1.25-15.75h-.04l-1.25,15.75Z"/>
      <path class="cls-1" d="m37.12,16.17l4.02,17.27h-1.68l-3.59-14.32h-.04v14.32h-1.79V.28h1.79v13.85h.04L39.58.28h1.64l-4.1,15.89Z"/>
      <path class="cls-1" d="m42.51,33.44V.28h4.61c.47,0,.94.09,1.41.28.47.19.89.48,1.27.88.38.4.68.9.9,1.52.22.62.33,1.35.33,2.21v23.38c0,.85-.11,1.59-.33,2.21-.22.62-.52,1.12-.9,1.52-.38.4-.8.69-1.27.88-.47.19-.94.28-1.41.28h-4.61Zm3.47-29.65v26.14h.86c.23,0,.41-.15.53-.45.12-.3.18-.81.18-1.54V5.79c0-.73-.06-1.24-.18-1.54-.12-.3-.29-.45-.53-.45h-.86Z"/>
      <path class="cls-1" d="m56.52,33.73c-.47,0-.94-.09-1.41-.28s-.89-.48-1.27-.88c-.38-.4-.68-.91-.9-1.54-.22-.63-.33-1.38-.33-2.23V4.93c0-.85.11-1.6.33-2.23.22-.63.52-1.15.9-1.54.38-.4.8-.69,1.27-.88.47-.19.94-.28,1.41-.28h.7c.49,0,.98.09,1.44.28.47.19.88.48,1.25.88.36.4.66.91.88,1.54.22.63.33,1.38.33,2.23v23.86c0,.85-.11,1.6-.33,2.23-.22.63-.51,1.15-.88,1.54-.37.4-.78.69-1.25.88-.47.19-.95.28-1.44.28h-.7Zm.27-30.21c-.47,0-.7.68-.7,2.04v22.63c0,1.36.23,2.04.7,2.04h.16c.47,0,.7-.68.7-2.04V5.55c0-1.36-.23-2.04-.7-2.04h-.16Z"/>
      <path class="cls-1" d="m64.37,33.44L62.38.28h3.28l1.02,18.45h.12l1.33-18.45h2.73l1.48,18.45h.08l1.01-18.45h3.04l-2.03,33.16h-3.36l-1.56-16.32h-.04l-1.33,16.32h-3.79Z"/>
      <path class="cls-1" d="m83.71,33.44l-3.02-20.02h-.04v20.02h-2.93V.28h3.87l2.73,19.54h.04V.28h3.2v33.16h-3.85Z"/>
    </g>
  </g>
</svg>