<?xml version="1.0" encoding="UTF-8"?>
<svg id="Capa_2" data-name="Capa 2" xmlns="http://www.w3.org/2000/svg" viewBox="0 0 1280 447.97">
  <defs>
    <style>
      .cls-1 {
        fill: #1c1c1c;
        stroke-width: 0px;
      }
    </style>
  </defs>
  <g id="a">
    <g>
      <path class="cls-1" d="m51.59,441.04c5.88-2.1,11.12-5.36,15.75-9.77,4.62-4.41,8.4-9.97,11.34-16.7,2.93-6.71,4.41-14.7,4.41-23.94v-129.79c0-13.44-2.11-23.41-6.3-29.93-4.2-6.51-9.45-10.6-15.75-12.29,6.3-2.1,11.55-6.4,15.75-12.92,4.19-6.51,6.3-16.48,6.3-29.93V61.12c0-10.08-1.48-18.79-4.41-26.15-2.94-7.34-6.72-13.33-11.34-17.96-4.63-4.62-9.87-7.97-15.75-10.08-5.89-2.1-11.97-3.15-18.27-3.15H0v440.41h33.32c6.3,0,12.38-1.04,18.27-3.15ZM3.08,28.35h27.72c5.88,0,11.23,2.84,16.07,8.51,4.82,5.67,7.25,15.23,7.25,28.67v108.37c0,22.27-6.52,33.39-19.53,33.39H3.08V28.35Zm0,391.27v-190.28h31.5c13.01,0,19.53,11.13,19.53,33.39v123.49c0,11.34-2.42,19.75-7.25,25.2-4.83,5.46-10.19,8.19-16.07,8.19H3.08Z"/>
      <path class="cls-1" d="m216.04,376.15v-109c0-13.44-2.11-23.41-6.3-29.93-4.2-6.51-9.45-10.6-15.75-12.29,6.3-2.1,11.55-6.4,15.75-12.92,4.19-6.51,6.3-16.48,6.3-29.93V61.12c0-19.32-4.94-33.71-14.81-43.16-9.87-9.45-21.53-14.18-34.97-14.18h-59.23v440.41h28.98v-208.55h31.5c13.01,0,19.53,11.34,19.53,34.02v106.48c0,19.75.41,34.65,1.26,44.73.84,10.08,2.3,17.86,4.41,23.31h28.98c-.85-3.36-2-9.86-3.47-19.53-1.48-9.66-2.21-25.83-2.21-48.51Zm-28.98-195.95c0,22.27-6.52,33.39-19.53,33.39h-31.5V28.35h27.72c5.88,0,11.23,2.84,16.07,8.51,4.82,5.67,7.25,15.23,7.25,28.67v114.67Z"/>
      <polygon class="cls-1" points="275.26 235.01 320.62 235.01 320.62 212.96 275.26 212.96 275.26 28.35 333.85 28.35 333.85 3.78 246.28 3.78 246.28 444.19 336.37 444.19 336.37 419.62 275.26 419.62 275.26 235.01"/>
      <path class="cls-1" d="m388.04,3.78l-42.84,440.41h25.83l11.97-125.38h45.99l11.97,125.38h28.35L425.84,3.78h-37.8Zm-2.52,292.98l20.16-209.18h.63l20.16,209.18h-40.95Z"/>
      <polygon class="cls-1" points="575.16 3.78 515.3 187.76 514.67 187.76 514.67 3.78 485.69 3.78 485.69 444.19 514.67 444.19 514.67 253.91 515.3 253.91 573.27 444.19 600.36 444.19 535.47 214.85 601.62 3.78 575.16 3.78"/>
      <path class="cls-1" d="m730.46,19.22c-6.09-5.25-12.92-9.14-20.48-11.66-7.56-2.52-15.12-3.78-22.68-3.78h-74.35v440.41h74.35c7.56,0,15.12-1.26,22.68-3.78,7.56-2.52,14.38-6.4,20.48-11.66,6.08-5.25,10.92-11.97,14.49-20.16,3.56-8.19,5.36-17.96,5.36-29.3V68.68c0-11.34-1.79-21.11-5.36-29.3-3.57-8.19-8.41-14.9-14.49-20.16Zm-36.23,351.89c0,9.67-.94,16.49-2.83,20.48-1.89,4-4.73,5.99-8.51,5.99h-13.86V50.4h13.86c3.78,0,6.62,2,8.51,5.99,1.89,4,2.83,10.82,2.83,20.48v294.24Z"/>
      <path class="cls-1" d="m884.51,15.44c-5.89-5.25-12.6-9.14-20.16-11.66-7.56-2.52-15.34-3.78-23.31-3.78h-11.34c-7.56,0-15.12,1.26-22.68,3.78-7.56,2.52-14.39,6.41-20.48,11.66-6.09,5.26-10.93,12.08-14.49,20.48-3.57,8.41-5.36,18.27-5.36,29.61v316.92c0,11.34,1.78,21.22,5.36,29.61,3.56,8.41,8.4,15.23,14.49,20.48,6.08,5.26,12.92,9.14,20.48,11.66,7.56,2.52,15.12,3.78,22.68,3.78h11.34c7.97,0,15.75-1.26,23.31-3.78,7.56-2.52,14.27-6.4,20.16-11.66,5.88-5.25,10.6-12.07,14.18-20.48,3.56-8.4,5.36-18.27,5.36-29.61V65.53c0-11.34-1.79-21.21-5.36-29.61-3.57-8.4-8.3-15.22-14.18-20.48Zm-36.54,358.82c0,18.07-3.78,27.09-11.34,27.09h-2.52c-7.56,0-11.34-9.03-11.34-27.09V73.72c0-18.06,3.78-27.09,11.34-27.09h2.52c7.56,0,11.34,9.04,11.34,27.09v300.54Z"/>
      <polygon class="cls-1" points="1076.67 248.87 1075.41 248.87 1051.47 3.78 1007.36 3.78 985.94 248.87 984.05 248.87 967.67 3.78 914.74 3.78 946.88 444.19 1007.99 444.19 1029.42 227.45 1030.04 227.45 1055.25 444.19 1109.43 444.19 1142.2 3.78 1093.05 3.78 1076.67 248.87"/>
      <polygon class="cls-1" points="1260.01 3.78 1260.01 263.37 1259.38 263.37 1215.27 3.78 1152.9 3.78 1152.9 444.19 1200.15 444.19 1200.15 178.31 1200.78 178.31 1249.57 444.19 1280 444.19 1280 3.78 1260.01 3.78"/>
    </g>
  </g>
</svg>