<?xml version="1.0" encoding="UTF-8"?>
<svg id="Capa_2" data-name="Capa 2" xmlns="http://www.w3.org/2000/svg" viewBox="0 0 669.46 178.02">
  <defs>
    <style>
      .cls-1 {
        fill: #44d62d;
      }

      .cls-1, .cls-2 {
        stroke-width: 0px;
      }

      .cls-2 {
        fill: #1c1c1c;
      }
    </style>
  </defs>
  <g id="a">
    <g>
      <path class="cls-1" d="m574.38,43.58v28.38h3.68v2.62h-7.14v-31h3.46Z"/>
      <path class="cls-1" d="m583.03,43.58v31h-3.46v-31h3.46Z"/>
      <path class="cls-1" d="m597.89,43.58v31h-2.88v-20.27h-.04l-2.22,20.27h-2.53l-2.17-20.27h-.09v20.27h-2.88v-31h4.48l1.86,17.7h.09l1.95-17.7h4.43Z"/>
      <path class="cls-1" d="m604.98,43.58c1.15,0,2.14.38,2.95,1.15.81.77,1.22,1.86,1.22,3.28v10.11c0,1.36-.38,2.33-1.15,2.91-.77.58-1.73.86-2.88.86h-1.69v12.68h-3.46v-31h5.01Zm.67,4.97c0-1.36-.34-2.04-1.02-2.04h-1.2v12.51h1.33c.59,0,.89-.65.89-1.95v-8.52Z"/>
      <path class="cls-1" d="m625.74,55.64c0,.95-.15,1.65-.44,2.11-.29.46-.66.76-1.09.91.44.12.8.41,1.09.87.29.46.44,1.16.44,2.11v8.65c0,.77-.12,1.42-.35,1.95-.24.53-.55.98-.95,1.33-.4.36-.85.61-1.35.78-.5.16-1.02.24-1.54.24h-4.94v-31h4.94c.53,0,1.04.09,1.54.27.5.18.95.44,1.35.8.4.35.71.81.95,1.38.24.56.35,1.24.35,2.04v7.58Zm-4.3,1.73c.56,0,.84-.65.84-1.95v-6.83c0-1.39-.33-2.08-.98-2.08h-1.24v10.87h1.38Zm.84,4.52c0-1.3-.3-1.95-.89-1.95h-1.33v11.71h1.2c.68,0,1.02-.64,1.02-1.91v-7.85Z"/>
      <path class="cls-1" d="m631.19,43.58v31h-3.46v-31h3.46Z"/>
      <path class="cls-1" d="m642.19,74.58h-9.27v-2.53l5.37-25.86h-4.52v-2.62h7.98v2.53l-5.37,25.86h5.81v2.62Z"/>
      <path class="cls-1" d="m649.86,58.53l3.64,16.05h-3.19l-2.84-11.4h-.09v11.4h-3.46v-31h3.46v11.71h.09l2.93-11.71h3.19l-3.73,14.95Z"/>
      <path class="cls-1" d="m658.51,43.58v31h-3.46v-31h3.46Z"/>
      <path class="cls-1" d="m669.46,46.51h-2.97v28.07h-3.46v-28.07h-3.02v-2.93h9.45v2.93Z"/>
    </g>
    <g>
      <path class="cls-1" d="m10.57,75.22c-1.27,0-2.54-.21-3.8-.63-1.27-.42-2.41-1.07-3.43-1.96-1.02-.88-1.83-2.02-2.43-3.43-.6-1.41-.9-3.06-.9-4.97V11.07c0-1.9.3-3.56.9-4.97.6-1.41,1.41-2.55,2.43-3.43,1.02-.88,2.17-1.53,3.43-1.96,1.27-.42,2.54-.63,3.8-.63h1.9c1.34,0,2.64.21,3.91.63,1.27.42,2.39,1.08,3.38,1.96.99.88,1.78,2.03,2.38,3.43.6,1.41.9,3.06.9,4.97v53.16c0,1.9-.3,3.56-.9,4.97-.6,1.41-1.39,2.55-2.38,3.43-.99.88-2.11,1.53-3.38,1.96-1.27.42-2.57.63-3.91.63h-1.9Zm.74-67.32c-1.27,0-1.9,1.52-1.9,4.54v50.41c0,3.03.63,4.54,1.9,4.54h.42c1.27,0,1.9-1.51,1.9-4.54V12.44c0-3.03-.63-4.54-1.9-4.54h-.42Z"/>
      <path class="cls-1" d="m53.16,56.72v7.82h-3.8v10.04h-8.03v-10.04h-14.58v-7.82L38.25.71h11.1v56.01h3.8Zm-11.84-29.8h-.32l-5.28,29.59v.21h5.6v-29.8Z"/>
    </g>
    <g>
      <path class="cls-2" d="m84.74,75.22c-1.27,0-2.54-.21-3.8-.63-1.27-.42-2.41-1.07-3.43-1.96-1.02-.88-1.83-2.02-2.43-3.43-.6-1.41-.9-3.06-.9-4.97V11.07c0-1.9.3-3.56.9-4.97.6-1.41,1.41-2.55,2.43-3.44,1.02-.88,2.17-1.53,3.43-1.96,1.27-.42,2.54-.63,3.8-.63h1.9c1.34,0,2.64.21,3.91.63,1.27.42,2.39,1.08,3.38,1.96.99.88,1.78,2.03,2.38,3.44.6,1.41.9,3.06.9,4.97v19.34h-9.41V12.44c0-1.62-.16-2.78-.48-3.49-.32-.7-.79-1.06-1.43-1.06h-.42c-.63,0-1.11.33-1.43,1-.32.67-.48,1.85-.48,3.54v50.41c0,3.03.63,4.54,1.9,4.54h.42c1.27,0,1.9-1.51,1.9-4.54v-18.18h9.41v19.55c0,1.9-.3,3.56-.9,4.97-.6,1.41-1.39,2.55-2.38,3.43-.99.88-2.11,1.53-3.38,1.96-1.27.42-2.57.63-3.91.63h-1.9Z"/>
      <path class="cls-2" d="m112.01,29.25c-1.2,0-1.87,1.06-2.01,3.17v42.17h-8.67V.71h8.67v23.99c1.83-1.83,3.66-2.75,5.5-2.75h.21c2.75,0,4.54.95,5.39,2.85.84,1.9,1.27,4.47,1.27,7.71v42.06h-8.67v-41.85c0-2.32-.53-3.49-1.58-3.49h-.11Z"/>
      <path class="cls-2" d="m135.36,74.9c-2.75,0-5-.95-6.76-2.85-1.76-1.9-2.64-4.47-2.64-7.71v-31.81c0-3.24.88-5.81,2.64-7.71,1.76-1.9,4.02-2.85,6.76-2.85h1.9c2.75,0,5.02.95,6.82,2.85s2.69,4.47,2.69,7.71v31.81c0,3.24-.9,5.81-2.69,7.71s-4.07,2.85-6.82,2.85h-1.9Zm.95-45.65c-1.13,0-1.69,1.16-1.69,3.49v31.39c0,2.33.56,3.49,1.69,3.49h.21c1.06,0,1.59-1.16,1.59-3.49v-31.39c0-2.32-.53-3.49-1.59-3.49h-.21Z"/>
      <path class="cls-2" d="m162.52,43.83v-11.1c0-2.32-.53-3.49-1.59-3.49h-.21c-1.13,0-1.69,1.16-1.69,3.49v31.39c0,2.33.53,3.49,1.59,3.49h.32c1.06,0,1.59-1.16,1.59-3.49v-11.31h8.67v11.41c0,3.38-.9,6.01-2.69,7.87s-4.07,2.8-6.82,2.8h-2.01c-2.68,0-4.9-.95-6.66-2.85-1.76-1.9-2.64-4.51-2.64-7.82v-31.6c0-3.38.88-6.01,2.64-7.87,1.76-1.87,4.02-2.8,6.76-2.8h1.9c2.75,0,5.02.94,6.82,2.8,1.8,1.87,2.69,4.46,2.69,7.77v11.31h-8.67Z"/>
      <path class="cls-2" d="m184.18,74.9c-2.75,0-5-.95-6.76-2.85-1.76-1.9-2.64-4.47-2.64-7.71v-31.81c0-3.24.88-5.81,2.64-7.71,1.76-1.9,4.02-2.85,6.76-2.85h1.9c2.75,0,5.02.95,6.82,2.85s2.69,4.47,2.69,7.71v31.81c0,3.24-.9,5.81-2.69,7.71s-4.07,2.85-6.82,2.85h-1.9Zm.95-45.65c-1.13,0-1.69,1.16-1.69,3.49v31.39c0,2.33.56,3.49,1.69,3.49h.21c1.06,0,1.59-1.16,1.59-3.49v-31.39c0-2.32-.53-3.49-1.59-3.49h-.21Z"/>
      <path class="cls-2" d="m199.4.71h8.67v73.87h-8.67V.71Z"/>
      <path class="cls-2" d="m217.68,74.9c-1.41,0-2.5-.25-3.28-.74-.78-.49-1.37-1.2-1.8-2.11-.42-.92-.69-2.03-.79-3.33-.11-1.3-.16-2.76-.16-4.38v-8.46c0-3.24.42-5.81,1.27-7.71s2.64-2.85,5.39-2.85h.21c1.76,0,3.52.67,5.28,2.01v-14.58c0-2.32-.57-3.49-1.69-3.49h-.21c-1.06,0-1.59,1.16-1.59,3.49v11.1h-8.67v-11.31c0-3.31.9-5.9,2.69-7.77,1.8-1.87,4.07-2.8,6.82-2.8h1.9c2.75,0,5,.94,6.76,2.8,1.76,1.87,2.64,4.49,2.64,7.87v41.96h-8.67v-1.8c-.99.63-1.96,1.15-2.91,1.53s-1.89.58-2.8.58h-.42Zm4.23-23.14c-1.06,0-1.59,1.16-1.59,3.49v9.72c0,2.33.53,3.49,1.59,3.49h.11c1.13,0,1.73-.91,1.8-2.75v-12.79c-.07-.35-.25-.63-.53-.85-.28-.21-.49-.32-.63-.32h-.74Z"/>
      <path class="cls-2" d="m246.75,5.15v17.12h4.02v7.29h-4.02v34.77c0,1.34.36,2.32,1.08,2.96.72.63,1.7.78,2.93.42v6.97c-2.33.35-4.3.3-5.92-.16-1.62-.46-2.92-1.16-3.91-2.11-.99-.95-1.71-2.13-2.17-3.54-.46-1.41-.69-2.92-.69-4.54V29.56h-2.43v-7.29h2.43V6l8.67-.85Z"/>
      <path class="cls-2" d="m264.18,67.61h.32c1.06,0,1.59-1.16,1.59-3.49v-11.31h8.67v11.41c0,3.38-.9,6.01-2.69,7.87s-4.07,2.8-6.82,2.8h-2.01c-2.68,0-4.9-.95-6.66-2.85-1.76-1.9-2.64-4.51-2.64-7.82v-31.6c0-3.38.88-6.01,2.64-7.87,1.76-1.87,4.02-2.8,6.76-2.8h1.9c2.75,0,5.02.94,6.82,2.8,1.8,1.87,2.69,4.46,2.69,7.77v18.07h-12.15v13.53c0,2.33.53,3.49,1.59,3.49Zm1.9-23.04v-11.84c0-2.32-.53-3.49-1.59-3.49h-.21c-1.13,0-1.69,1.16-1.69,3.49v11.84h3.49Z"/>
      <path class="cls-2" d="m304.13,30.41V12.44c0-1.62-.16-2.78-.48-3.49-.32-.7-.79-1.06-1.43-1.06h-.42c-.63,0-1.11.33-1.43,1-.32.67-.48,1.85-.48,3.54v8.35c0,2.4.33,4.51,1,6.34.67,1.83,1.51,3.54,2.54,5.13,1.02,1.58,2.11,3.1,3.28,4.54,1.16,1.45,2.25,2.98,3.28,4.6,1.02,1.62,1.87,3.35,2.54,5.18.67,1.83,1,3.95,1,6.34v11.31c0,1.9-.3,3.56-.9,4.97-.6,1.41-1.39,2.55-2.38,3.43-.99.88-2.11,1.53-3.38,1.96-1.27.42-2.57.63-3.91.63h-1.69c-1.27,0-2.55-.21-3.86-.63-1.3-.42-2.47-1.07-3.49-1.96-1.02-.88-1.85-2.02-2.48-3.43-.63-1.41-.95-3.06-.95-4.97v-19.45h8.67v18.07c0,1.62.21,2.79.62,3.49.41.71,1,1.06,1.76,1.06h.31c1.52,0,2.28-1.51,2.28-4.54v-8.46c0-2.32-.33-4.4-1-6.23-.67-1.83-1.52-3.54-2.54-5.12-1.02-1.59-2.11-3.1-3.28-4.54-1.16-1.44-2.26-2.96-3.28-4.54-1.02-1.58-1.87-3.31-2.54-5.18-.67-1.87-1-4-1-6.39v-11.31c0-1.9.3-3.56.9-4.97.6-1.41,1.42-2.55,2.44-3.44,1.03-.88,2.18-1.53,3.45-1.96,1.27-.42,2.58-.63,3.93-.63h1.06c1.27,0,2.55.21,3.82.63,1.28.42,2.41,1.08,3.4,1.96.99.88,1.79,2.03,2.39,3.44.6,1.41.9,3.06.9,4.97v19.34h-8.67Z"/>
      <path class="cls-2" d="m328.12,5.15v17.12h4.02v7.29h-4.02v34.77c0,1.34.36,2.32,1.08,2.96.72.63,1.7.78,2.93.42v6.97c-2.33.35-4.3.3-5.92-.16-1.62-.46-2.92-1.16-3.91-2.11-.99-.95-1.71-2.13-2.17-3.54-.46-1.41-.69-2.92-.69-4.54V29.56h-2.43v-7.29h2.43V6l8.67-.85Z"/>
      <path class="cls-2" d="m341.33,74.9c-1.41,0-2.5-.25-3.28-.74-.78-.49-1.37-1.2-1.8-2.11-.42-.92-.69-2.03-.79-3.33-.11-1.3-.16-2.76-.16-4.38v-8.46c0-3.24.42-5.81,1.27-7.71s2.64-2.85,5.39-2.85h.21c1.76,0,3.52.67,5.28,2.01v-14.58c0-2.32-.57-3.49-1.69-3.49h-.21c-1.06,0-1.59,1.16-1.59,3.49v11.1h-8.67v-11.31c0-3.31.9-5.9,2.69-7.77,1.8-1.87,4.07-2.8,6.82-2.8h1.9c2.75,0,5,.94,6.76,2.8,1.76,1.87,2.64,4.49,2.64,7.87v41.96h-8.67v-1.8c-.99.63-1.96,1.15-2.91,1.53s-1.89.58-2.8.58h-.42Zm4.23-23.14c-1.06,0-1.59,1.16-1.59,3.49v9.72c0,2.33.53,3.49,1.59,3.49h.11c1.13,0,1.73-.91,1.8-2.75v-12.79c-.07-.35-.25-.63-.53-.85-.28-.21-.49-.32-.63-.32h-.74Z"/>
      <path class="cls-2" d="m370.39,29.25c-1.2,0-1.87,1.06-2.01,3.17v42.17h-8.67V22.27h8.67l-.04,2.43c1.82-1.83,3.64-2.75,5.47-2.75h.21c2.87,0,4.8,1.2,5.78,3.59.35.85.59,1.87.73,3.06.14,1.2.21,2.5.21,3.91v11.31h-8.67v-11.1c0-2.32-.49-3.49-1.48-3.49h-.21Z"/>
      <path class="cls-2" d="m386.77,74.58V29.56h-2.43v-7.29h2.43v-11.73c0-1.62.3-3.15.9-4.6s1.53-2.66,2.8-3.65c1.27-.99,2.85-1.67,4.76-2.06s4.16-.3,6.76.26v6.97c-.56-.07-1.22-.07-1.96,0-.74.07-1.45.23-2.11.48-.67.25-1.25.63-1.74,1.16-.49.53-.74,1.25-.74,2.17v10.99h6.55v7.29h-6.55v45.02h-8.67Z"/>
      <path class="cls-2" d="m413.61,8.53v10.15h-8.67v-10.15h8.67Zm0,13.74v52.31h-8.67V22.27h8.67Z"/>
      <path class="cls-2" d="m429.46,42.88v-10.15c0-.99-.14-1.81-.42-2.48-.28-.67-.71-1-1.27-1h-.21c-.57,0-.97.33-1.22,1-.25.67-.37,1.5-.37,2.48v4.54c0,2.26.63,4.12,1.9,5.6,1.27,1.48,2.66,2.96,4.17,4.44,1.51,1.48,2.91,3.1,4.17,4.86,1.27,1.76,1.9,4.02,1.9,6.76v5.39c0,3.24-.9,5.81-2.69,7.71s-4.07,2.85-6.82,2.85h-1.8c-2.82,0-5.11-.95-6.87-2.85-1.76-1.9-2.64-4.47-2.64-7.71v-10.36h7.82v10.14c0,2.33.67,3.49,2.01,3.49h.32c1.34,0,2.01-1.16,2.01-3.49v-4.54c0-2.18-.63-4.03-1.9-5.55-1.27-1.51-2.66-3.01-4.17-4.49-1.52-1.48-2.91-3.1-4.17-4.86-1.27-1.76-1.9-4.02-1.9-6.76v-5.39c0-3.17.88-5.72,2.64-7.66,1.76-1.94,4.05-2.91,6.87-2.91h.95c2.82,0,5.11.95,6.87,2.85,1.76,1.9,2.64,4.47,2.64,7.71v10.36h-7.82Z"/>
      <path class="cls-2" d="m452.61,29.25c-1.2,0-1.87,1.06-2.01,3.17v42.17h-8.67V.71h8.67v23.99c1.83-1.83,3.66-2.75,5.5-2.75h.21c2.75,0,4.54.95,5.39,2.85.84,1.9,1.27,4.47,1.27,7.71v42.06h-8.67v-41.85c0-2.32-.53-3.49-1.58-3.49h-.11Z"/>
      <path class="cls-2" d="m484.62,74.9c-1.41,0-2.5-.25-3.28-.74-.78-.49-1.37-1.2-1.8-2.11-.42-.92-.69-2.03-.79-3.33-.11-1.3-.16-2.76-.16-4.38v-8.46c0-3.24.42-5.81,1.27-7.71s2.64-2.85,5.39-2.85h.21c1.76,0,3.52.67,5.28,2.01v-14.58c0-2.32-.57-3.49-1.69-3.49h-.21c-1.06,0-1.59,1.16-1.59,3.49v11.1h-8.67v-11.31c0-3.31.9-5.9,2.69-7.77,1.8-1.87,4.07-2.8,6.82-2.8h1.9c2.75,0,5,.94,6.76,2.8,1.76,1.87,2.64,4.49,2.64,7.87v41.96h-8.67v-1.8c-.99.63-1.96,1.15-2.91,1.53s-1.89.58-2.8.58h-.42Zm4.23-23.14c-1.06,0-1.59,1.16-1.59,3.49v9.72c0,2.33.53,3.49,1.59,3.49h.11c1.13,0,1.73-.91,1.8-2.75v-12.79c-.07-.35-.25-.63-.53-.85-.28-.21-.49-.32-.63-.32h-.74Z"/>
      <path class="cls-2" d="m513.69,29.25c-1.2,0-1.87,1.06-2.01,3.17v42.17h-8.67V22.27h8.67l-.04,2.43c1.82-1.83,3.64-2.75,5.47-2.75h.21c2.73,0,4.54.95,5.42,2.85.88,1.9,1.31,4.47,1.31,7.71v42.06h-8.67v-41.85c0-2.32-.49-3.49-1.48-3.49h-.21Z"/>
      <path class="cls-2" d="m534.61,74.9c-2.75,0-4.58-.95-5.5-2.85-.92-1.9-1.37-4.47-1.37-7.71v-31.81c0-3.24.42-5.81,1.27-7.71s2.64-2.85,5.39-2.85h.21c1.69,0,3.45.85,5.28,2.54V.71h8.67v73.87h-6.97l-.95-2.64c-.85.92-1.74,1.64-2.69,2.17-.95.53-1.92.79-2.91.79h-.42Zm3.38-45.65c-1.06,0-1.59,1.16-1.59,3.49v31.39c0,2.33.53,3.49,1.59,3.49h.11c1.2,0,1.8-1.23,1.8-3.7v-31.6c-.14-2.04-.71-3.06-1.69-3.06h-.21Z"/>
      <path class="cls-2" d="m84.74,91.15v17.12h4.02v7.29h-4.02v34.77c0,1.34.36,2.32,1.08,2.96.72.63,1.7.78,2.93.42v6.97c-2.33.35-4.3.3-5.92-.16-1.62-.46-2.92-1.16-3.91-2.11-.99-.95-1.71-2.13-2.17-3.54-.46-1.41-.69-2.92-.69-4.54v-34.77h-2.43v-7.29h2.43v-16.27l8.67-.85Z"/>
      <path class="cls-2" d="m103.02,115.25c-1.2,0-1.87,1.06-2.01,3.17v42.17h-8.67v-73.87h8.67v23.99c1.83-1.83,3.66-2.75,5.5-2.75h.21c2.75,0,4.54.95,5.39,2.85.84,1.9,1.27,4.47,1.27,7.71v42.06h-8.67v-41.85c0-2.32-.53-3.49-1.58-3.49h-.11Z"/>
      <path class="cls-2" d="m127.22,153.61h.32c1.06,0,1.59-1.16,1.59-3.49v-11.31h8.67v11.41c0,3.38-.9,6.01-2.69,7.87s-4.07,2.8-6.82,2.8h-2.01c-2.68,0-4.9-.95-6.66-2.85-1.76-1.9-2.64-4.51-2.64-7.82v-31.6c0-3.38.88-6.01,2.64-7.87,1.76-1.87,4.02-2.8,6.76-2.8h1.9c2.75,0,5.02.94,6.82,2.8,1.8,1.87,2.69,4.46,2.69,7.77v18.07h-12.15v13.53c0,2.33.53,3.49,1.59,3.49Zm1.9-23.04v-11.84c0-2.32-.53-3.49-1.59-3.49h-.21c-1.13,0-1.69,1.16-1.69,3.49v11.84h3.49Z"/>
      <path class="cls-2" d="m176.47,86.71v73.87h-9.41v-33.39h-4.02v33.39h-9.41v-73.87h9.41v33.5h4.02v-33.5h9.41Z"/>
      <path class="cls-2" d="m189.89,160.9c-2.75,0-5-.95-6.76-2.85-1.76-1.9-2.64-4.47-2.64-7.71v-31.81c0-3.24.88-5.81,2.64-7.71,1.76-1.9,4.02-2.85,6.76-2.85h1.9c2.75,0,5.02.95,6.82,2.85s2.69,4.47,2.69,7.71v31.81c0,3.24-.9,5.81-2.69,7.71s-4.07,2.85-6.82,2.85h-1.9Zm.95-45.65c-1.13,0-1.69,1.16-1.69,3.49v31.39c0,2.33.56,3.49,1.69,3.49h.21c1.06,0,1.59-1.16,1.59-3.49v-31.39c0-2.32-.53-3.49-1.59-3.49h-.21Z"/>
      <path class="cls-2" d="m215.57,91.15v17.12h4.02v7.29h-4.02v34.77c0,1.34.36,2.32,1.08,2.96.72.63,1.7.78,2.93.42v6.97c-2.33.35-4.3.3-5.92-.16-1.62-.46-2.92-1.16-3.91-2.11-.99-.95-1.71-2.13-2.17-3.54-.46-1.41-.69-2.92-.69-4.54v-34.77h-2.43v-7.29h2.43v-16.27l8.67-.85Z"/>
      <path class="cls-2" d="m235.23,160.58v-73.87h12.47c1.27,0,2.54.21,3.8.63,1.27.42,2.41,1.07,3.43,1.96,1.02.88,1.83,2.01,2.43,3.38.6,1.38.9,3.01.9,4.91v52.1c0,1.9-.3,3.54-.9,4.91-.6,1.38-1.41,2.5-2.43,3.38-1.02.88-2.17,1.53-3.43,1.96-1.27.42-2.54.63-3.8.63h-12.47Zm9.41-66.05v58.23h2.33c.63,0,1.11-.33,1.43-1,.32-.67.48-1.81.48-3.43v-49.35c0-1.62-.16-2.76-.48-3.44-.32-.67-.79-1-1.43-1h-2.33Z"/>
      <path class="cls-2" d="m271.58,160.9c-2.75,0-5-.95-6.76-2.85-1.76-1.9-2.64-4.47-2.64-7.71v-31.81c0-3.24.88-5.81,2.64-7.71,1.76-1.9,4.02-2.85,6.76-2.85h1.9c2.75,0,5.02.95,6.82,2.85s2.69,4.47,2.69,7.71v31.81c0,3.24-.9,5.81-2.69,7.71s-4.07,2.85-6.82,2.85h-1.9Zm.95-45.65c-1.13,0-1.69,1.16-1.69,3.49v31.39c0,2.33.56,3.49,1.69,3.49h.21c1.06,0,1.59-1.16,1.59-3.49v-31.39c0-2.32-.53-3.49-1.59-3.49h-.21Z"/>
      <path class="cls-2" d="m307.4,108.27v59.08c0,3.31-.88,5.92-2.64,7.82-1.76,1.9-3.98,2.85-6.66,2.85h-2.01c-2.75,0-5.02-.93-6.82-2.8s-2.69-4.49-2.69-7.87v-3.7h8.67v3.59c0,2.32.53,3.49,1.59,3.49h.32c1.06,0,1.59-1.16,1.59-3.49v-8.67c-1.76,1.55-3.52,2.33-5.28,2.33h-.21c-2.75,0-4.54-.95-5.39-2.85s-1.27-4.47-1.27-7.71v-31.81c0-3.24.46-5.81,1.37-7.71.92-1.9,2.75-2.85,5.5-2.85h.42c1.83,0,3.66.92,5.5,2.75l1.06-2.43h6.97Zm-10.46,45.34c1.2,0,1.8-1.23,1.8-3.7v-31.6c-.14-2.04-.74-3.06-1.8-3.06h-.11c-1.06,0-1.59,1.16-1.59,3.49v31.39c0,2.33.53,3.49,1.59,3.49h.11Z"/>
      <path class="cls-2" d="m332.76,94.53v25.68h7.08v6.97h-7.08v33.39h-9.41v-73.87h18.39v7.82h-8.98Z"/>
      <path class="cls-2" d="m345.23,86.71h8.67v73.87h-8.67v-73.87Z"/>
      <path class="cls-2" d="m363.52,160.9c-1.41,0-2.5-.25-3.28-.74-.78-.49-1.37-1.2-1.8-2.11-.42-.92-.69-2.03-.79-3.33-.11-1.3-.16-2.76-.16-4.38v-8.46c0-3.24.42-5.81,1.27-7.71s2.64-2.85,5.39-2.85h.21c1.76,0,3.52.67,5.28,2.01v-14.58c0-2.32-.57-3.49-1.69-3.49h-.21c-1.06,0-1.59,1.16-1.59,3.49v11.1h-8.67v-11.31c0-3.31.9-5.9,2.69-7.77,1.8-1.87,4.07-2.8,6.82-2.8h1.9c2.75,0,5,.94,6.76,2.8,1.76,1.87,2.64,4.49,2.64,7.87v41.96h-8.67v-1.8c-.99.63-1.96,1.15-2.91,1.53s-1.89.58-2.8.58h-.42Zm4.23-23.14c-1.06,0-1.59,1.16-1.59,3.49v9.72c0,2.33.53,3.49,1.59,3.49h.11c1.13,0,1.73-.91,1.8-2.75v-12.79c-.07-.35-.25-.63-.53-.85-.28-.21-.49-.32-.63-.32h-.74Z"/>
      <path class="cls-2" d="m394.59,108.27h7.29l-5.07,52.31h-10.67l-5.28-52.31h8.03l2.64,34.14h.42l2.64-34.14Z"/>
      <path class="cls-2" d="m413.61,160.9c-2.75,0-5-.95-6.76-2.85-1.76-1.9-2.64-4.47-2.64-7.71v-31.81c0-3.24.88-5.81,2.64-7.71,1.76-1.9,4.02-2.85,6.76-2.85h1.9c2.75,0,5.02.95,6.82,2.85s2.69,4.47,2.69,7.71v31.81c0,3.24-.9,5.81-2.69,7.71s-4.07,2.85-6.82,2.85h-1.9Zm.95-45.65c-1.13,0-1.69,1.16-1.69,3.49v31.39c0,2.33.56,3.49,1.69,3.49h.21c1.06,0,1.59-1.16,1.59-3.49v-31.39c0-2.32-.53-3.49-1.59-3.49h-.21Z"/>
      <path class="cls-2" d="m439.29,115.25c-1.2,0-1.87,1.06-2.01,3.17v42.17h-8.67v-52.31h8.67l-.04,2.43c1.82-1.83,3.64-2.75,5.47-2.75h.21c2.87,0,4.8,1.2,5.78,3.59.35.85.59,1.87.73,3.06.14,1.2.21,2.5.21,3.91v11.31h-8.67v-11.1c0-2.32-.49-3.49-1.48-3.49h-.21Z"/>
      <path class="cls-2" d="m463.49,153.61h.32c1.06,0,1.59-1.16,1.59-3.49v-11.31h8.67v11.41c0,3.38-.9,6.01-2.69,7.87s-4.07,2.8-6.82,2.8h-2.01c-2.68,0-4.9-.95-6.66-2.85-1.76-1.9-2.64-4.51-2.64-7.82v-31.6c0-3.38.88-6.01,2.64-7.87,1.76-1.87,4.02-2.8,6.76-2.8h1.9c2.75,0,5.02.94,6.82,2.8,1.8,1.87,2.69,4.46,2.69,7.77v18.07h-12.15v13.53c0,2.33.53,3.49,1.59,3.49Zm1.9-23.04v-11.84c0-2.32-.53-3.49-1.59-3.49h-.21c-1.13,0-1.69,1.16-1.69,3.49v11.84h3.49Z"/>
      <path class="cls-2" d="m484.52,160.9c-2.75,0-4.58-.95-5.5-2.85-.92-1.9-1.37-4.47-1.37-7.71v-31.81c0-3.24.42-5.81,1.27-7.71s2.64-2.85,5.39-2.85h.21c1.69,0,3.45.85,5.28,2.54v-23.78h8.67v73.87h-6.97l-.95-2.64c-.85.92-1.74,1.64-2.69,2.17-.95.53-1.92.79-2.91.79h-.42Zm3.38-45.65c-1.06,0-1.59,1.16-1.59,3.49v31.39c0,2.33.53,3.49,1.59,3.49h.11c1.2,0,1.8-1.23,1.8-3.7v-31.6c-.14-2.04-.71-3.06-1.69-3.06h-.21Z"/>
      <path class="cls-2" d="m518.86,160.58l-5.39-73.87h8.88l2.75,41.11h.32l3.59-41.11h7.4l4.02,41.11h.21l2.75-41.11h8.24l-5.5,73.87h-9.09l-4.23-36.35h-.11l-3.59,36.35h-10.25Z"/>
      <path class="cls-2" d="m558.49,160.9c-1.41,0-2.5-.25-3.28-.74-.78-.49-1.37-1.2-1.8-2.11-.42-.92-.69-2.03-.79-3.33-.11-1.3-.16-2.76-.16-4.38v-8.46c0-3.24.42-5.81,1.27-7.71s2.64-2.85,5.39-2.85h.21c1.76,0,3.52.67,5.28,2.01v-14.58c0-2.32-.57-3.49-1.69-3.49h-.21c-1.06,0-1.59,1.16-1.59,3.49v11.1h-8.67v-11.31c0-3.31.9-5.9,2.69-7.77,1.8-1.87,4.07-2.8,6.82-2.8h1.9c2.75,0,5,.94,6.76,2.8,1.76,1.87,2.64,4.49,2.64,7.87v41.96h-8.67v-1.8c-.99.63-1.96,1.15-2.91,1.53s-1.89.58-2.8.58h-.42Zm4.23-23.14c-1.06,0-1.59,1.16-1.59,3.49v9.72c0,2.33.53,3.49,1.59,3.49h.11c1.13,0,1.73-.91,1.8-2.75v-12.79c-.07-.35-.25-.63-.53-.85-.28-.21-.49-.32-.63-.32h-.74Z"/>
      <path class="cls-2" d="m587.55,91.15v17.12h4.02v7.29h-4.02v34.77c0,1.34.36,2.32,1.08,2.96.72.63,1.7.78,2.93.42v6.97c-2.33.35-4.3.3-5.92-.16-1.62-.46-2.92-1.16-3.91-2.11-.99-.95-1.71-2.13-2.17-3.54-.46-1.41-.69-2.92-.69-4.54v-34.77h-2.43v-7.29h2.43v-16.27l8.67-.85Z"/>
      <path class="cls-2" d="m604.99,153.61h.32c1.06,0,1.59-1.16,1.59-3.49v-11.31h8.67v11.41c0,3.38-.9,6.01-2.69,7.87s-4.07,2.8-6.82,2.8h-2.01c-2.68,0-4.9-.95-6.66-2.85-1.76-1.9-2.64-4.51-2.64-7.82v-31.6c0-3.38.88-6.01,2.64-7.87,1.76-1.87,4.02-2.8,6.76-2.8h1.9c2.75,0,5.02.94,6.82,2.8,1.8,1.87,2.69,4.46,2.69,7.77v18.07h-12.15v13.53c0,2.33.53,3.49,1.59,3.49Zm1.9-23.04v-11.84c0-2.32-.53-3.49-1.59-3.49h-.21c-1.13,0-1.69,1.16-1.69,3.49v11.84h3.49Z"/>
      <path class="cls-2" d="m629.83,115.25c-1.2,0-1.87,1.06-2.01,3.17v42.17h-8.67v-52.31h8.67l-.04,2.43c1.82-1.83,3.64-2.75,5.47-2.75h.21c2.87,0,4.8,1.2,5.78,3.59.35.85.59,1.87.73,3.06.14,1.2.21,2.5.21,3.91v11.31h-8.67v-11.1c0-2.32-.49-3.49-1.48-3.49h-.21Z"/>
    </g>
  </g>
</svg>