<?xml version="1.0" encoding="UTF-8"?>
<svg id="Capa_2" data-name="Capa 2" xmlns="http://www.w3.org/2000/svg" viewBox="0 0 39.43 39.43">
  <defs>
    <style>
      .cls-1 {
        fill: #bfff0a;
      }

      .cls-1, .cls-2 {
        stroke-width: 0px;
      }

      .cls-2 {
        fill: #1c1c1c;
      }
    </style>
  </defs>
  <g id="a">
    <g>
      <circle class="cls-2" cx="19.71" cy="19.71" r="19.71"/>
      <path class="cls-1" d="m28.35,11.82c-1.63-.75-3.36-1.29-5.14-1.59-.23.39-.48.92-.66,1.35-1.89-.28-3.8-.28-5.69,0-.2-.46-.43-.91-.68-1.35-1.78.3-3.51.84-5.14,1.59-3.24,4.83-4.12,9.55-3.68,14.19,1.9,1.41,4.03,2.49,6.3,3.18.51-.69.96-1.42,1.35-2.19-.74-.28-1.45-.61-2.12-1.01.18-.13.35-.27.51-.4,3.99,1.89,8.61,1.89,12.6,0,.17.14.34.27.52.41-.68.4-1.39.74-2.13,1.02.39.77.84,1.5,1.35,2.19,2.27-.69,4.4-1.76,6.3-3.18.51-5.39-.89-10.06-3.7-14.2Zm-12.78,11.35c-1.23,0-2.24-1.13-2.24-2.51s.99-2.52,2.24-2.52,2.25,1.13,2.24,2.51c-.01,1.38-.99,2.51-2.24,2.51Zm8.27,0c-1.23,0-2.24-1.13-2.24-2.51s.99-2.52,2.24-2.52,2.25,1.13,2.24,2.51c-.01,1.38-.99,2.51-2.24,2.51Z"/>
    </g>
  </g>
</svg>