<?xml version="1.0" encoding="UTF-8"?>
<svg id="Capa_2" data-name="Capa 2" xmlns="http://www.w3.org/2000/svg" viewBox="0 0 261.66 74.5">
  <defs>
    <style>
      .cls-1 {
        stroke-width: 0px;
      }
    </style>
  </defs>
  <g id="a">
    <g>
      <path class="cls-1" d="m4.86,4.12v30.96h7.61v3.7h-7.61v30.96h10.25v4.12H0V0h14.69v4.12H4.86Z"/>
      <path class="cls-1" d="m24.73,0v70.17h9.19v3.7h-14.06V0h4.86Z"/>
      <path class="cls-1" d="m65.78,73.87l-8.18-44.6h-.11v44.6h-7.93V0h10.46l7.4,43.54h.11V0h8.67v73.87h-10.42Z"/>
      <path class="cls-1" d="m90.78,74.5c-1.27,0-2.54-.21-3.8-.63s-2.41-1.07-3.43-1.96c-1.02-.88-1.83-2.02-2.43-3.43-.6-1.41-.9-3.06-.9-4.97V0h9.41v62.14c0,3.03.63,4.54,1.9,4.54h.42c1.27,0,1.9-1.51,1.9-4.54V0h9.41v63.51c0,1.9-.3,3.56-.9,4.97-.6,1.41-1.39,2.55-2.38,3.43-.99.88-2.11,1.53-3.38,1.96-1.27.42-2.57.63-3.91.63h-1.9Z"/>
      <path class="cls-1" d="m130.83,33.71v6.34h-23.46v-6.34h23.46Z"/>
      <path class="cls-1" d="m167.08,0v73.87h-7.71V29.17h-.21l-4.76,44.7h-6.76l-4.65-44.7h-.11v44.7h-7.93V0h12.15l3.8,37.73h.21L155.14,0h11.94Z"/>
      <path class="cls-1" d="m180.71,7.82v25.68h7.08v6.97h-7.08v25.58h9.72v7.82h-19.13V0h18.39v7.82h-8.98Z"/>
      <path class="cls-1" d="m216.64,7.82h-7.29v66.05h-9.41V7.82h-7.29V0h23.99v7.82Z"/>
      <path class="cls-1" d="m230.06,54.85h-5.07l-1.48,19.02h-8.14L221.82,0h11.94l6.87,73.87h-8.98l-1.59-19.02Zm-4.44-7.08h3.91l-1.8-22.09h-.32l-1.8,22.09Z"/>
      <path class="cls-1" d="m252.99,0v66.9h8.67v6.97h-18.07V0h9.41Z"/>
    </g>
  </g>
</svg>