<?xml version="1.0" encoding="UTF-8"?>
<svg id="Capa_2" data-name="Capa 2" xmlns="http://www.w3.org/2000/svg" viewBox="0 0 148.54 25.12">
  <defs>
    <style>
      .cls-1 {
        fill: #bfff0a;
        stroke-width: 0px;
      }
    </style>
  </defs>
  <g id="a">
    <g>
      <path class="cls-1" d="m12.25,19.17V7.22h7.56v1.15h-6.19v4.15h5.85v1.15h-5.85v4.34h6.19v1.15h-7.56Z"/>
      <path class="cls-1" d="m21.27,17.8l.54-1.07c.59.5,1.19.85,1.81,1.07.62.21,1.33.32,2.14.32.96,0,1.7-.19,2.22-.56s.78-.9.78-1.58c0-.4-.12-.72-.37-.97-.25-.25-.58-.45-.98-.59-.41-.15-.96-.3-1.64-.46-.93-.21-1.69-.44-2.28-.68s-1.07-.58-1.44-1.02c-.37-.44-.55-1.02-.55-1.73s.18-1.28.53-1.8c.36-.53.86-.93,1.53-1.22.66-.29,1.43-.43,2.3-.43.82,0,1.6.13,2.31.39.72.26,1.33.63,1.82,1.12l-.53,1.07c-.57-.49-1.14-.84-1.72-1.06-.58-.22-1.21-.33-1.89-.33-.93,0-1.65.2-2.18.58s-.79.94-.79,1.64c0,.6.23,1.05.7,1.36.46.31,1.16.57,2.1.78,1.03.25,1.84.48,2.42.69.59.21,1.08.52,1.47.94.39.42.58.98.58,1.68s-.18,1.27-.53,1.78-.87.9-1.53,1.18c-.67.28-1.45.42-2.34.42-1.86,0-3.36-.5-4.48-1.51Z"/>
      <path class="cls-1" d="m34.56,18.57c-.84-.49-1.48-1.2-1.92-2.12-.45-.92-.67-2.01-.67-3.26s.22-2.34.67-3.25c.45-.92,1.09-1.62,1.92-2.11.84-.49,1.82-.74,2.95-.74.82,0,1.58.13,2.27.38.69.25,1.29.63,1.8,1.13l-.53,1.07c-.58-.49-1.14-.84-1.7-1.05-.55-.21-1.16-.32-1.83-.32-1.31,0-2.33.43-3.04,1.28-.72.85-1.08,2.06-1.08,3.62s.36,2.78,1.08,3.64,1.73,1.28,3.04,1.28c.67,0,1.28-.11,1.83-.32.55-.21,1.12-.56,1.7-1.05l.53,1.07c-.51.5-1.11.87-1.8,1.13-.69.25-1.45.38-2.27.38-1.13,0-2.11-.25-2.95-.74Z"/>
      <path class="cls-1" d="m45.01,18.09c-.8-.81-1.2-2.01-1.2-3.59v-7.27h1.37v7.39c0,1.16.29,2.04.86,2.63s1.41.88,2.52.88,1.94-.29,2.51-.88c.56-.59.85-1.46.85-2.63v-7.39h1.39v7.27c0,1.57-.4,2.77-1.21,3.59-.81.82-1.99,1.23-3.53,1.23s-2.74-.41-3.54-1.22Z"/>
      <path class="cls-1" d="m58.31,18.57c-.84-.49-1.48-1.2-1.92-2.12-.45-.92-.67-2.01-.67-3.26s.22-2.34.67-3.25c.45-.92,1.09-1.62,1.92-2.11.84-.49,1.82-.74,2.95-.74.82,0,1.58.13,2.27.38.69.25,1.29.63,1.8,1.13l-.53,1.07c-.58-.49-1.14-.84-1.7-1.05-.55-.21-1.16-.32-1.83-.32-1.31,0-2.33.43-3.04,1.28-.72.85-1.08,2.06-1.08,3.62s.36,2.78,1.08,3.64,1.73,1.28,3.04,1.28c.67,0,1.28-.11,1.83-.32.55-.21,1.12-.56,1.7-1.05l.53,1.07c-.51.5-1.11.87-1.8,1.13-.69.25-1.45.38-2.27.38-1.13,0-2.11-.25-2.95-.74Z"/>
      <path class="cls-1" d="m76.17,7.22h1.37v11.95h-1.37v-5.48h-7.15v5.48h-1.37V7.22h1.37v5.29h7.15v-5.29Z"/>
      <path class="cls-1" d="m89.63,19.17l-1.32-3.07h-6.24l-1.32,3.07h-1.42l5.26-11.95h1.2l5.26,11.95h-1.41Zm-7.07-4.22h5.26l-2.63-6.12-2.63,6.12Z"/>
      <path class="cls-1" d="m106.33,19.17l-1.32-3.07h-6.24l-1.32,3.07h-1.42l5.26-11.95h1.2l5.26,11.95h-1.41Zm-7.07-4.22h5.26l-2.63-6.12-2.63,6.12Z"/>
      <path class="cls-1" d="m116.85,19.35c.19.19.39.44.59.77l1.14,1.83-1.17.61-1.41-2.29c-.4-.64-1.03-.97-1.9-.97-1.11,0-2.07-.25-2.89-.75-.82-.5-1.45-1.2-1.89-2.12-.44-.92-.66-2-.66-3.24s.22-2.34.65-3.26c.44-.92,1.06-1.63,1.88-2.12.82-.49,1.79-.74,2.91-.74s2.07.25,2.89.74c.82.49,1.45,1.2,1.89,2.12.44.92.66,2,.66,3.25,0,1.45-.29,2.67-.87,3.67-.58,1-1.41,1.7-2.48,2.09.25.08.47.21.66.4Zm-5.7-2.52c.71.86,1.69,1.29,2.96,1.29s2.25-.43,2.96-1.28,1.06-2.07,1.06-3.65-.35-2.8-1.05-3.65c-.7-.85-1.69-1.27-2.97-1.27s-2.25.43-2.96,1.28c-.71.85-1.06,2.07-1.06,3.64s.35,2.79,1.06,3.64Z"/>
      <path class="cls-1" d="m123.18,18.09c-.8-.81-1.2-2.01-1.2-3.59v-7.27h1.37v7.39c0,1.16.29,2.04.86,2.63s1.41.88,2.52.88,1.94-.29,2.51-.88c.56-.59.85-1.46.85-2.63v-7.39h1.39v7.27c0,1.57-.4,2.77-1.21,3.59-.81.82-1.99,1.23-3.53,1.23s-2.74-.41-3.54-1.22Z"/>
      <path class="cls-1" d="m134.33,19.17V7.22h1.39v11.95h-1.39Zm1.17-12.97h-.95l1.71-2.58h1.49l-2.25,2.58Z"/>
    </g>
    <path class="cls-1" d="m135.98,25.12H12.56C5.63,25.12,0,19.48,0,12.56S5.63,0,12.56,0h123.42c6.92,0,12.56,5.63,12.56,12.56s-5.63,12.56-12.56,12.56ZM12.56,1C6.18,1,1,6.18,1,12.56s5.18,11.56,11.56,11.56h123.42c6.37,0,11.56-5.18,11.56-11.56s-5.18-11.56-11.56-11.56H12.56Z"/>
  </g>
</svg>