<?xml version="1.0" encoding="UTF-8"?>
<svg id="Capa_2" data-name="Capa 2" xmlns="http://www.w3.org/2000/svg" viewBox="0 0 483.26 91.94">
  <defs>
    <style>
      .cls-1 {
        fill: #44d62d;
      }

      .cls-1, .cls-2 {
        stroke-width: 0px;
      }

      .cls-2 {
        fill: #1c1c1c;
      }
    </style>
  </defs>
  <g id="a">
    <g>
      <path class="cls-1" d="m382.95,43.5v28.38h3.68v2.62h-7.14v-31h3.46Z"/>
      <path class="cls-1" d="m391.59,43.5v31h-3.46v-31h3.46Z"/>
      <path class="cls-1" d="m400.29,74.51l-3.68-20.27h-.09v20.27h-2.88v-31h3.9l3.46,19.87v-19.87h3.15v31h-3.86Z"/>
      <path class="cls-1" d="m412.13,58.45l3.64,16.05h-3.19l-2.84-11.4h-.09v11.4h-3.46v-31h3.46v11.71h.09l2.93-11.71h3.19l-3.73,14.95Z"/>
      <path class="cls-1" d="m420.78,43.5v31h-3.46v-31h3.46Z"/>
      <path class="cls-1" d="m429.47,74.51l-3.68-20.27h-.09v20.27h-2.88v-31h3.9l3.46,19.87v-19.87h3.15v31h-3.86Z"/>
      <path class="cls-1" d="m445.83,43.5c1.15,0,2.14.38,2.95,1.15.81.77,1.22,1.86,1.22,3.28v10.11c0,1.36-.38,2.33-1.15,2.91-.77.58-1.73.86-2.88.86h-1.69v12.68h-3.46v-31h5.01Zm.67,4.97c0-1.36-.34-2.04-1.02-2.04h-1.2v12.51h1.33c.59,0,.89-.65.89-1.95v-8.52Z"/>
      <path class="cls-1" d="m456.61,66.3h-2.44l-.67,8.21h-2.97l2.75-31h4.44l2.93,31h-3.33l-.71-8.21Zm-2.22-2.57h2l-.93-10.64h-.13l-.93,10.64Z"/>
      <path class="cls-1" d="m471.25,56.01c0,.95-.15,1.65-.44,2.11-.29.46-.66.76-1.09.91.44.12.8.41,1.09.87.29.46.44,1.16.44,2.11v6.96c0,1.01.02,1.85.07,2.53.04.68.1,1.23.16,1.66s.12.75.18.95c.06.21.1.34.13.4h-3.47c-.21-.35-.34-.97-.42-1.84-.07-.87-.11-2.11-.11-3.7v-6.65c0-1.33-.3-2-.89-2h-1.33v14.19h-3.46v-31h4.99c1.15,0,2.12.38,2.93,1.15s1.21,1.86,1.21,3.28v8.07Zm-4.35,1.73c.59,0,.89-.65.89-1.95v-7.32c0-1.36-.34-2.04-1.02-2.04h-1.2v11.31h1.33Z"/>
      <path class="cls-1" d="m479.54,58.45l3.64,16.05h-3.19l-2.84-11.4h-.09v11.4h-3.46v-31h3.46v11.71h.09l2.93-11.71h3.19l-3.73,14.95Z"/>
    </g>
    <g>
      <path class="cls-1" d="m10.57,75.14c-1.27,0-2.54-.21-3.8-.63-1.27-.42-2.41-1.07-3.43-1.96-1.02-.88-1.83-2.02-2.43-3.43-.6-1.41-.9-3.06-.9-4.97V10.99c0-1.9.3-3.56.9-4.97.6-1.41,1.41-2.55,2.43-3.43,1.02-.88,2.17-1.53,3.43-1.96,1.27-.42,2.54-.63,3.8-.63h1.9c1.34,0,2.64.21,3.91.63,1.27.42,2.39,1.08,3.38,1.96.99.88,1.78,2.03,2.38,3.43.6,1.41.9,3.06.9,4.97v53.16c0,1.9-.3,3.56-.9,4.97-.6,1.41-1.39,2.55-2.38,3.43-.99.88-2.11,1.53-3.38,1.96-1.27.42-2.57.63-3.91.63h-1.9Zm.74-67.32c-1.27,0-1.9,1.52-1.9,4.54v50.41c0,3.03.63,4.54,1.9,4.54h.42c1.27,0,1.9-1.51,1.9-4.54V12.36c0-3.03-.63-4.54-1.9-4.54h-.42Z"/>
      <path class="cls-1" d="m33.82,74.5V14.79c-1,.14-2.18.28-3.54.42-1.36.14-2.54.21-3.54.21v-7.4c2.06,0,3.97-.72,5.74-2.17,1.77-1.44,2.73-3.19,2.87-5.23h7.87v73.87h-9.41Z"/>
    </g>
    <g>
      <path class="cls-2" d="m93.37.63v73.87h-9.41v-33.4h-4.02v33.4h-9.41V.63h9.41v33.5h4.02V.63h9.41Z"/>
      <path class="cls-2" d="m110.38,22.19h7.08l-6.55,69.75h-8.56l2.01-17.44-8.03-52.31h7.93l2.96,28.32h.32l2.85-28.32Z"/>
      <path class="cls-2" d="m133.8,74.82c-1.96,0-3.88-1.02-5.77-3.07l-.85,2.75h-6.97V.63h8.67l-.04,23.78c1.68-1.69,3.43-2.54,5.26-2.54h.21c2.8,0,4.63.95,5.47,2.85.84,1.9,1.26,4.47,1.26,7.71v31.81c0,3.24-.47,5.81-1.42,7.71-.94,1.9-2.78,2.85-5.5,2.85h-.31Zm-3.23-45.65c-.99,0-1.55,1.02-1.69,3.06v31.6c0,2.47.6,3.7,1.8,3.7h.21c.99,0,1.48-1.16,1.48-3.49v-31.39c0-2.33-.53-3.49-1.59-3.49h-.21Z"/>
      <path class="cls-2" d="m155.3,29.17c-1.2,0-1.87,1.06-2.01,3.17v42.17h-8.67V22.19h8.67l-.04,2.43c1.82-1.83,3.64-2.75,5.47-2.75h.21c2.87,0,4.8,1.2,5.78,3.59.35.85.59,1.87.73,3.06.14,1.2.21,2.5.21,3.91v11.31h-8.67v-11.1c0-2.33-.49-3.49-1.48-3.49h-.21Z"/>
      <path class="cls-2" d="m178.12,8.45v10.15h-8.67v-10.15h8.67Zm0,13.74v52.31h-8.67V22.19h8.67Z"/>
      <path class="cls-2" d="m188.69,74.82c-2.75,0-4.58-.95-5.5-2.85-.92-1.9-1.37-4.47-1.37-7.71v-31.81c0-3.24.42-5.81,1.27-7.71s2.64-2.85,5.39-2.85h.21c1.69,0,3.45.84,5.28,2.54V.63h8.67v73.87h-6.97l-.95-2.64c-.85.92-1.74,1.64-2.69,2.17s-1.92.79-2.91.79h-.42Zm3.38-45.65c-1.06,0-1.59,1.16-1.59,3.49v31.39c0,2.33.53,3.49,1.59,3.49h.11c1.2,0,1.8-1.23,1.8-3.7v-31.6c-.14-2.04-.71-3.06-1.69-3.06h-.21Z"/>
      <path class="cls-2" d="m241.42,8.45h-7.29v66.05h-9.41V8.45h-7.29V.63h23.99v7.82Z"/>
      <path class="cls-2" d="m255.06,29.17c-1.2,0-1.87,1.06-2.01,3.17v42.17h-8.67V.63h8.67v23.99c1.83-1.83,3.66-2.75,5.5-2.75h.21c2.75,0,4.54.95,5.39,2.85.84,1.9,1.27,4.47,1.27,7.71v42.06h-8.67v-41.85c0-2.33-.53-3.49-1.58-3.49h-.11Z"/>
      <path class="cls-2" d="m279.26,67.53h.32c1.06,0,1.59-1.16,1.59-3.49v-11.31h8.67v11.41c0,3.38-.9,6.01-2.69,7.87-1.8,1.87-4.07,2.8-6.82,2.8h-2.01c-2.68,0-4.9-.95-6.66-2.85-1.76-1.9-2.64-4.51-2.64-7.82v-31.6c0-3.38.88-6.01,2.64-7.87,1.76-1.87,4.02-2.8,6.76-2.8h1.9c2.75,0,5.02.93,6.82,2.8,1.8,1.87,2.69,4.46,2.69,7.77v18.07h-12.15v13.53c0,2.33.53,3.49,1.59,3.49Zm1.9-23.04v-11.84c0-2.33-.53-3.49-1.59-3.49h-.21c-1.13,0-1.69,1.16-1.69,3.49v11.84h3.49Z"/>
      <path class="cls-2" d="m302.82,74.82c-2.75,0-5-.95-6.76-2.85-1.76-1.9-2.64-4.47-2.64-7.71v-31.81c0-3.24.88-5.81,2.64-7.71,1.76-1.9,4.02-2.85,6.76-2.85h1.9c2.75,0,5.02.95,6.82,2.85s2.69,4.47,2.69,7.71v31.81c0,3.24-.9,5.81-2.69,7.71s-4.07,2.85-6.82,2.85h-1.9Zm.95-45.65c-1.13,0-1.69,1.16-1.69,3.49v31.39c0,2.33.56,3.49,1.69,3.49h.21c1.06,0,1.59-1.16,1.59-3.49v-31.39c0-2.33-.53-3.49-1.59-3.49h-.21Z"/>
      <path class="cls-2" d="m328.5,29.17c-1.2,0-1.87,1.06-2.01,3.17v42.17h-8.67V22.19h8.67l-.04,2.43c1.82-1.83,3.64-2.75,5.47-2.75h.21c2.87,0,4.8,1.2,5.78,3.59.35.85.59,1.87.73,3.06.14,1.2.21,2.5.21,3.91v11.31h-8.67v-11.1c0-2.33-.49-3.49-1.48-3.49h-.21Z"/>
      <path class="cls-2" d="m355.45,22.19h7.08l-6.55,69.75h-8.56l2.01-17.44-8.03-52.31h7.93l2.96,28.32h.32l2.85-28.32Z"/>
    </g>
  </g>
</svg>