<?xml version="1.0" encoding="UTF-8"?>
<svg id="Capa_2" data-name="Capa 2" xmlns="http://www.w3.org/2000/svg" viewBox="0 0 39.43 39.43">
  <defs>
    <style>
      .cls-1 {
        fill: #bfff0a;
      }

      .cls-1, .cls-2 {
        stroke-width: 0px;
      }

      .cls-2 {
        fill: #1c1c1c;
      }
    </style>
  </defs>
  <g id="a">
    <g>
      <circle class="cls-2" cx="19.71" cy="19.71" r="19.71"/>
      <g>
        <path class="cls-1" d="m25.15,13.12c-.66,0-1.2.54-1.2,1.2s.54,1.2,1.2,1.2,1.2-.54,1.2-1.2-.54-1.2-1.2-1.2Z"/>
        <path class="cls-1" d="m19.8,14.66c-2.79,0-5.05,2.27-5.05,5.05s2.27,5.05,5.05,5.05,5.05-2.27,5.05-5.05-2.27-5.05-5.05-5.05Zm0,8.29c-1.78,0-3.24-1.45-3.24-3.24s1.45-3.24,3.24-3.24,3.24,1.45,3.24,3.24-1.45,3.24-3.24,3.24Z"/>
        <path class="cls-1" d="m23.81,29.97h-8.19c-3.4,0-6.16-2.76-6.16-6.16v-8.19c0-3.4,2.76-6.16,6.16-6.16h8.19c3.4,0,6.16,2.76,6.16,6.16v8.19c0,3.4-2.77,6.16-6.16,6.16ZM15.62,11.38c-2.33,0-4.23,1.9-4.23,4.23v8.19c0,2.33,1.9,4.23,4.23,4.23h8.19c2.33,0,4.23-1.9,4.23-4.23v-8.19c0-2.33-1.9-4.23-4.23-4.23h-8.19Z"/>
      </g>
    </g>
  </g>
</svg>