<?xml version="1.0" encoding="UTF-8"?>
<svg id="Capa_2" data-name="Capa 2" xmlns="http://www.w3.org/2000/svg" viewBox="0 0 233.54 75.14">
  <defs>
    <style>
      .cls-1 {
        fill: #44d62d;
      }

      .cls-1, .cls-2 {
        stroke-width: 0px;
      }

      .cls-2 {
        fill: #1c1c1c;
      }
    </style>
  </defs>
  <g id="a">
    <g>
      <path class="cls-1" d="m195.58,58.45l3.64,16.05h-3.19l-2.84-11.4h-.09v11.4h-3.46v-31h3.46v11.71h.09l2.93-11.71h3.19l-3.73,14.95Z"/>
      <path class="cls-1" d="m204.58,74.77c-.5,0-1-.09-1.51-.27s-.95-.44-1.35-.8c-.4-.36-.72-.81-.95-1.38-.24-.56-.36-1.24-.36-2.04v-22.58c0-.8.12-1.48.36-2.04.24-.56.55-1.02.95-1.38.4-.35.85-.62,1.35-.8.5-.18,1-.27,1.51-.27h.8c.5,0,1,.09,1.51.27.5.18.95.44,1.35.8.4.36.72.81.95,1.38.24.56.36,1.24.36,2.04v22.58c0,.8-.12,1.48-.36,2.04s-.55,1.02-.95,1.38c-.4.35-.85.62-1.35.8-.5.18-1.01.27-1.51.27h-.8Zm.31-28.61c-.68,0-1.02.69-1.02,2.08v21.51c0,.77.09,1.31.27,1.62s.43.47.75.47h.18c.33,0,.58-.16.75-.47s.27-.85.27-1.62v-21.51c0-1.39-.34-2.08-1.02-2.08h-.18Z"/>
      <path class="cls-1" d="m220.73,56.01c0,.95-.15,1.65-.44,2.11-.29.46-.66.76-1.09.91.44.12.8.41,1.09.87.29.46.44,1.16.44,2.11v6.96c0,1.01.02,1.85.07,2.53.04.68.1,1.23.16,1.66s.12.75.18.95c.06.21.1.34.13.4h-3.47c-.21-.35-.34-.97-.42-1.84-.07-.87-.11-2.11-.11-3.7v-6.65c0-1.33-.3-2-.89-2h-1.33v14.19h-3.46v-31h4.99c1.15,0,2.12.38,2.93,1.15s1.21,1.86,1.21,3.28v8.07Zm-4.35,1.73c.59,0,.89-.65.89-1.95v-7.32c0-1.36-.34-2.04-1.02-2.04h-1.2v11.31h1.33Z"/>
      <path class="cls-1" d="m229.69,74.51l-3.68-20.27h-.09v20.27h-2.88v-31h3.9l3.46,19.87v-19.87h3.15v31h-3.86Z"/>
    </g>
    <g>
      <path class="cls-1" d="m10.57,75.14c-1.27,0-2.54-.21-3.8-.63-1.27-.42-2.41-1.07-3.43-1.96-1.02-.88-1.83-2.02-2.43-3.43-.6-1.41-.9-3.06-.9-4.97V10.99c0-1.9.3-3.56.9-4.97.6-1.41,1.41-2.55,2.43-3.43,1.02-.88,2.17-1.53,3.43-1.96,1.27-.42,2.54-.63,3.8-.63h1.9c1.34,0,2.64.21,3.91.63,1.27.42,2.39,1.08,3.38,1.96.99.88,1.78,2.03,2.38,3.43.6,1.41.9,3.06.9,4.97v53.16c0,1.9-.3,3.56-.9,4.97-.6,1.41-1.39,2.55-2.38,3.43-.99.88-2.11,1.53-3.38,1.96-1.27.42-2.57.63-3.91.63h-1.9Zm.74-67.32c-1.27,0-1.9,1.52-1.9,4.54v50.41c0,3.03.63,4.54,1.9,4.54h.42c1.27,0,1.9-1.51,1.9-4.54V12.36c0-3.03-.63-4.54-1.9-4.54h-.42Z"/>
      <path class="cls-1" d="m27.05,30.33V10.99c0-1.9.3-3.56.9-4.97.6-1.41,1.39-2.55,2.38-3.43.99-.88,2.11-1.53,3.38-1.96,1.27-.42,2.54-.63,3.8-.63h1.06c1.34,0,2.64.21,3.91.63,1.27.42,2.39,1.08,3.38,1.96.99.88,1.8,2.03,2.43,3.43.63,1.41.95,3.06.95,4.97v11.31c0,2.4-.32,4.6-.95,6.6-.63,2.01-1.43,4-2.38,5.97-.95,1.97-1.97,3.98-3.07,6.02-1.09,2.04-2.11,4.32-3.06,6.82-.95,2.5-1.74,5.28-2.38,8.35s-.95,6.61-.95,10.62h13.63v7.82h-23.04v-7.82c0-4.51.32-8.45.95-11.84.63-3.38,1.43-6.38,2.38-8.98.95-2.61,1.97-4.95,3.06-7.03,1.09-2.08,2.11-4.07,3.06-5.97s1.74-3.8,2.38-5.71.95-4.05.95-6.45v-8.35c0-1.69-.16-2.87-.48-3.54-.32-.67-.79-1-1.43-1h-.42c-.63,0-1.11.35-1.43,1.06-.32.71-.48,1.87-.48,3.49v17.97h-8.56Z"/>
    </g>
    <g>
      <path class="cls-2" d="m90.34,36.35l7.93,38.15h-8.56l-5.92-25.68h-.11v25.68h-9.41V.63h9.41v26.95h.11L89.92.63h8.56l-8.14,35.72Z"/>
      <path class="cls-2" d="m109.79,74.82c-2.75,0-5-.95-6.76-2.85-1.76-1.9-2.64-4.47-2.64-7.71v-31.81c0-3.24.88-5.81,2.64-7.71,1.76-1.9,4.02-2.85,6.76-2.85h1.9c2.75,0,5.02.95,6.82,2.85s2.69,4.47,2.69,7.71v31.81c0,3.24-.9,5.81-2.69,7.71s-4.07,2.85-6.82,2.85h-1.9Zm.95-45.65c-1.13,0-1.69,1.16-1.69,3.49v31.39c0,2.33.56,3.49,1.69,3.49h.21c1.06,0,1.59-1.16,1.59-3.49v-31.39c0-2.33-.53-3.49-1.59-3.49h-.21Z"/>
      <path class="cls-2" d="m135.47,29.17c-1.2,0-1.87,1.06-2.01,3.17v42.17h-8.67V22.19h8.67l-.04,2.43c1.82-1.83,3.64-2.75,5.47-2.75h.21c2.87,0,4.8,1.2,5.78,3.59.35.85.59,1.87.73,3.06.14,1.2.21,2.5.21,3.91v11.31h-8.67v-11.1c0-2.33-.49-3.49-1.48-3.49h-.21Z"/>
      <path class="cls-2" d="m160.09,29.17c-1.2,0-1.87,1.06-2.01,3.17v42.17h-8.67V22.19h8.67l-.04,2.43c1.82-1.83,3.64-2.75,5.47-2.75h.21c2.73,0,4.54.95,5.42,2.85.88,1.9,1.31,4.47,1.31,7.71v42.06h-8.67v-41.85c0-2.33-.49-3.49-1.48-3.49h-.21Z"/>
    </g>
  </g>
</svg>