<?xml version="1.0" encoding="UTF-8"?>
<svg id="Capa_2" data-name="Capa 2" xmlns="http://www.w3.org/2000/svg" viewBox="0 0 142.36 32.46">
  <defs>
    <style>
      .cls-1 {
        fill: #f4f4f4;
      }

      .cls-1, .cls-2 {
        stroke-width: 0px;
      }

      .cls-2 {
        fill: #1c1c1c;
      }
    </style>
  </defs>
  <g id="a">
    <g>
      <path class="cls-2" d="m53.93,1.46v28.38h3.68v2.62h-7.14V1.46h3.46Z"/>
      <path class="cls-2" d="m61.92,1.46v31h-3.46V1.46h3.46Z"/>
      <path class="cls-2" d="m76.11,1.46v31h-2.88V12.19h-.04l-2.22,20.27h-2.53l-2.17-20.27h-.09v20.27h-2.88V1.46h4.48l1.86,17.7h.09l1.95-17.7h4.43Z"/>
      <path class="cls-2" d="m82.54,1.46c1.15,0,2.14.38,2.95,1.15.81.77,1.22,1.86,1.22,3.28v10.11c0,1.36-.38,2.33-1.15,2.91-.77.58-1.73.86-2.88.86h-1.69v12.68h-3.46V1.46h5.01Zm.67,4.97c0-1.36-.34-2.04-1.02-2.04h-1.2v12.51h1.33c.59,0,.89-.65.89-1.95V6.42Z"/>
      <path class="cls-2" d="m101.96,13.52c0,.95-.15,1.65-.44,2.11-.29.46-.66.76-1.09.91.44.12.8.41,1.09.87.29.46.44,1.16.44,2.11v8.65c0,.77-.12,1.42-.35,1.95-.24.53-.55.98-.95,1.33-.4.36-.85.61-1.35.78-.5.16-1.02.24-1.54.24h-4.94V1.46h4.94c.53,0,1.04.09,1.54.27.5.18.95.44,1.35.8.4.35.71.81.95,1.38.24.56.35,1.24.35,2.04v7.58Zm-4.3,1.73c.56,0,.84-.65.84-1.95v-6.83c0-1.39-.33-2.08-.98-2.08h-1.24v10.87h1.38Zm.84,4.52c0-1.3-.3-1.95-.89-1.95h-1.33v11.71h1.2c.68,0,1.02-.64,1.02-1.91v-7.85Z"/>
      <path class="cls-2" d="m106.75,1.46v31h-3.46V1.46h3.46Z"/>
      <path class="cls-2" d="m117.09,32.46h-9.27v-2.53l5.37-25.86h-4.52V1.46h7.98v2.53l-5.37,25.86h5.81v2.62Z"/>
      <path class="cls-2" d="m124.09,16.4l3.64,16.05h-3.19l-2.84-11.4h-.09v11.4h-3.46V1.46h3.46v11.71h.09l2.93-11.71h3.19l-3.73,14.95Z"/>
      <path class="cls-2" d="m132.08,1.46v31h-3.46V1.46h3.46Z"/>
      <path class="cls-2" d="m142.36,4.38h-2.97v28.07h-3.46V4.38h-3.02V1.46h9.45v2.93Z"/>
    </g>
    <g>
      <path class="cls-1" d="m17.01,7.79c-.56-.56-1.47-.56-2.03,0s-.56,1.47,0,2.03l4.97,4.97h-10.92c-.79,0-1.44.64-1.44,1.44s.64,1.44,1.44,1.44h10.96s-4.97,4.97-4.97,4.97c-.56.56-.56,1.47,0,2.03.28.28.65.42,1.02.42s.74-.14,1.02-.42l8.42-8.42-8.46-8.46Z"/>
      <path class="cls-1" d="m16.23,32.46C7.28,32.46,0,25.18,0,16.23S7.28,0,16.23,0c8.95,0,16.23,7.28,16.23,16.23s-7.28,16.23-16.23,16.23Zm0-29.58c-7.36,0-13.36,5.99-13.36,13.36,0,7.36,5.99,13.36,13.36,13.36,7.36,0,13.36-5.99,13.36-13.36,0-7.36-5.99-13.36-13.36-13.36Z"/>
    </g>
  </g>
</svg>