<?xml version="1.0" encoding="UTF-8"?>
<svg id="Capa_2" data-name="Capa 2" xmlns="http://www.w3.org/2000/svg" viewBox="0 0 149.07 32.46">
  <defs>
    <style>
      .cls-1 {
        fill: #f4f4f4;
      }

      .cls-1, .cls-2 {
        stroke-width: 0px;
      }

      .cls-2 {
        fill: #1c1c1c;
      }
    </style>
  </defs>
  <g id="a">
    <g>
      <path class="cls-2" d="m55.41,1.46v28.38h3.68v2.62h-7.14V1.46h3.46Z"/>
      <path class="cls-2" d="m63.39,1.46v31h-3.46V1.46h3.46Z"/>
      <path class="cls-2" d="m71.42,32.46l-3.68-20.27h-.09v20.27h-2.88V1.46h3.9l3.46,19.87V1.46h3.15v31h-3.86Z"/>
      <path class="cls-2" d="m82.59,16.4l3.64,16.05h-3.19l-2.84-11.4h-.09v11.4h-3.46V1.46h3.46v11.71h.09l2.93-11.71h3.19l-3.73,14.95Z"/>
      <path class="cls-2" d="m90.58,1.46v31h-3.46V1.46h3.46Z"/>
      <path class="cls-2" d="m98.6,32.46l-3.68-20.27h-.09v20.27h-2.88V1.46h3.9l3.46,19.87V1.46h3.15v31h-3.86Z"/>
      <path class="cls-2" d="m113.64,1.46c1.15,0,2.14.38,2.95,1.15.81.77,1.22,1.86,1.22,3.28v10.11c0,1.36-.38,2.33-1.15,2.91-.77.58-1.73.86-2.88.86h-1.69v12.68h-3.46V1.46h5.01Zm.67,4.97c0-1.36-.34-2.04-1.02-2.04h-1.2v12.51h1.33c.59,0,.89-.65.89-1.95V6.42Z"/>
      <path class="cls-2" d="m123.75,24.25h-2.44l-.67,8.21h-2.97l2.75-31h4.44l2.93,31h-3.33l-.71-8.21Zm-2.22-2.57h2l-.93-10.64h-.13l-.93,10.64Z"/>
      <path class="cls-2" d="m137.72,13.96c0,.95-.15,1.65-.44,2.11-.29.46-.66.76-1.09.91.44.12.8.41,1.09.87.29.46.44,1.16.44,2.11v6.96c0,1.01.02,1.85.07,2.53.04.68.1,1.23.16,1.66s.12.75.18.95c.06.21.1.34.13.4h-3.47c-.21-.35-.34-.97-.42-1.84-.07-.87-.11-2.11-.11-3.7v-6.65c0-1.33-.3-2-.89-2h-1.33v14.19h-3.46V1.46h4.99c1.15,0,2.12.38,2.93,1.15s1.21,1.86,1.21,3.28v8.07Zm-4.35,1.73c.59,0,.89-.65.89-1.95v-7.32c0-1.36-.34-2.04-1.02-2.04h-1.2v11.31h1.33Z"/>
      <path class="cls-2" d="m145.35,16.4l3.64,16.05h-3.19l-2.84-11.4h-.09v11.4h-3.46V1.46h3.46v11.71h.09l2.93-11.71h3.19l-3.73,14.95Z"/>
    </g>
    <g>
      <path class="cls-1" d="m17.01,7.79c-.56-.56-1.47-.56-2.03,0s-.56,1.47,0,2.03l4.97,4.97h-10.92c-.79,0-1.44.64-1.44,1.44s.64,1.44,1.44,1.44h10.96s-4.97,4.97-4.97,4.97c-.56.56-.56,1.47,0,2.03.28.28.65.42,1.02.42s.74-.14,1.02-.42l8.42-8.42-8.46-8.46Z"/>
      <path class="cls-1" d="m16.23,32.46C7.28,32.46,0,25.18,0,16.23,0,7.28,7.28,0,16.23,0c8.95,0,16.23,7.28,16.23,16.23,0,8.95-7.28,16.23-16.23,16.23Zm0-29.58c-7.36,0-13.36,5.99-13.36,13.36s5.99,13.36,13.36,13.36c7.36,0,13.36-5.99,13.36-13.36S23.59,2.87,16.23,2.87Z"/>
    </g>
  </g>
</svg>