<?xml version="1.0" encoding="UTF-8"?>
<svg id="Capa_2" data-name="Capa 2" xmlns="http://www.w3.org/2000/svg" viewBox="0 0 361.45 111.11">
  <defs>
    <style>
      .cls-1 {
        fill: #bfff0a;
        stroke-width: 0px;
      }
    </style>
  </defs>
  <g id="a">
    <g>
      <path class="cls-1" d="m20.16,44.85v-26.57c0-2.4-.23-4.11-.7-5.16-.47-1.04-1.17-1.56-2.11-1.56h-.62c-.94,0-1.64.5-2.11,1.48-.47.99-.7,2.74-.7,5.24v12.35c0,3.54.49,6.67,1.49,9.38.99,2.71,2.24,5.24,3.75,7.58,1.51,2.34,3.13,4.59,4.84,6.72,1.72,2.14,3.33,4.4,4.84,6.8,1.51,2.4,2.76,4.95,3.75,7.66.99,2.71,1.49,5.84,1.49,9.38v16.72c0,2.81-.44,5.26-1.33,7.34-.89,2.08-2.06,3.78-3.52,5.08-1.46,1.3-3.13,2.27-5,2.89s-3.8.94-5.78.94h-2.5c-1.88,0-3.78-.31-5.7-.94-1.93-.62-3.65-1.59-5.16-2.89-1.51-1.3-2.74-2.99-3.67-5.08-.94-2.08-1.41-4.53-1.41-7.34v-28.75h12.81v26.72c0,2.4.31,4.12.92,5.16.61,1.04,1.48,1.56,2.6,1.56h.46c2.24,0,3.37-2.24,3.37-6.72v-12.5c0-3.44-.5-6.51-1.48-9.22-.99-2.71-2.24-5.24-3.75-7.58-1.51-2.34-3.12-4.58-4.84-6.72-1.72-2.13-3.34-4.38-4.84-6.72-1.51-2.34-2.76-4.9-3.75-7.66-.99-2.76-1.48-5.91-1.48-9.45v-16.72c0-2.81.44-5.26,1.33-7.34.89-2.08,2.09-3.78,3.61-5.08,1.52-1.3,3.22-2.27,5.1-2.89,1.89-.62,3.82-.94,5.81-.94h1.57c1.88,0,3.76.31,5.65.94,1.88.62,3.56,1.59,5.03,2.89,1.46,1.3,2.64,3,3.53,5.08.89,2.08,1.33,4.53,1.33,7.34v28.6h-12.81Z"/>
      <path class="cls-1" d="m55.79,111.11c-1.88,0-3.75-.31-5.63-.94-1.88-.62-3.57-1.59-5.08-2.89-1.51-1.3-2.71-2.99-3.59-5.08-.89-2.08-1.33-4.53-1.33-7.34V.94h13.91v91.89c0,4.48.94,6.72,2.81,6.72h.62c1.88,0,2.81-2.24,2.81-6.72V.94h13.91v93.92c0,2.81-.44,5.26-1.33,7.34-.89,2.08-2.06,3.78-3.52,5.08-1.46,1.3-3.12,2.27-5,2.89-1.88.62-3.8.94-5.78.94h-2.81Z"/>
      <path class="cls-1" d="m100.33,44.85v-26.57c0-2.4-.23-4.11-.7-5.16-.47-1.04-1.17-1.56-2.11-1.56h-.62c-.94,0-1.64.5-2.11,1.48-.47.99-.7,2.74-.7,5.24v12.35c0,3.54.49,6.67,1.49,9.38.99,2.71,2.24,5.24,3.75,7.58,1.51,2.34,3.13,4.59,4.84,6.72,1.72,2.14,3.33,4.4,4.84,6.8,1.51,2.4,2.76,4.95,3.75,7.66.99,2.71,1.49,5.84,1.49,9.38v16.72c0,2.81-.44,5.26-1.33,7.34-.89,2.08-2.06,3.78-3.52,5.08-1.46,1.3-3.13,2.27-5,2.89s-3.8.94-5.78.94h-2.5c-1.88,0-3.78-.31-5.7-.94-1.93-.62-3.65-1.59-5.16-2.89-1.51-1.3-2.74-2.99-3.67-5.08-.94-2.08-1.41-4.53-1.41-7.34v-28.75h12.81v26.72c0,2.4.31,4.12.92,5.16.61,1.04,1.48,1.56,2.6,1.56h.46c2.24,0,3.37-2.24,3.37-6.72v-12.5c0-3.44-.5-6.51-1.48-9.22-.99-2.71-2.24-5.24-3.75-7.58-1.51-2.34-3.12-4.58-4.84-6.72-1.72-2.13-3.34-4.38-4.84-6.72-1.51-2.34-2.76-4.9-3.75-7.66-.99-2.76-1.48-5.91-1.48-9.45v-16.72c0-2.81.44-5.26,1.33-7.34.89-2.08,2.09-3.78,3.61-5.08,1.52-1.3,3.22-2.27,5.1-2.89,1.89-.62,3.82-.94,5.81-.94h1.57c1.88,0,3.76.31,5.65.94,1.88.62,3.56,1.59,5.03,2.89,1.46,1.3,2.64,3,3.53,5.08.89,2.08,1.33,4.53,1.33,7.34v28.6h-12.81Z"/>
      <path class="cls-1" d="m135.8,111.11c-1.88,0-3.75-.31-5.63-.94-1.88-.62-3.57-1.59-5.08-2.89-1.51-1.3-2.71-2.99-3.59-5.08-.89-2.08-1.33-4.53-1.33-7.34V16.25c0-2.81.44-5.26,1.33-7.34.88-2.08,2.08-3.78,3.59-5.08,1.51-1.3,3.2-2.27,5.08-2.89,1.88-.62,3.75-.94,5.63-.94h2.81c1.98,0,3.91.31,5.78.94s3.54,1.59,5,2.89c1.46,1.3,2.63,3,3.52,5.08.88,2.08,1.33,4.53,1.33,7.34v28.6h-13.91v-26.57c0-2.4-.23-4.11-.7-5.16-.47-1.04-1.17-1.56-2.11-1.56h-.62c-.94,0-1.64.5-2.11,1.48-.47.99-.7,2.74-.7,5.24v74.54c0,4.48.94,6.72,2.81,6.72h.62c1.88,0,2.81-2.24,2.81-6.72v-26.88h13.91v28.91c0,2.81-.44,5.26-1.33,7.34-.89,2.08-2.06,3.78-3.52,5.08-1.46,1.3-3.13,2.27-5,2.89s-3.8.94-5.78.94h-2.81Z"/>
      <path class="cls-1" d="m194.4,45.01c0,3.34-.52,5.81-1.56,7.42-1.04,1.62-2.34,2.68-3.91,3.2,1.56.42,2.86,1.43,3.91,3.05,1.04,1.62,1.56,4.09,1.56,7.42v23.6c0,7.5.29,12.74.86,15.71.57,2.97.96,4.56,1.17,4.77h-13.91c-.83-1.25-1.38-3.49-1.64-6.72-.26-3.23-.39-7.81-.39-13.75v-22.35c0-4.38-.89-6.56-2.66-6.56h-3.59v49.38h-13.91V.94h18.6c4.38,0,8.05,1.41,11.02,4.22,2.97,2.81,4.45,6.77,4.45,11.88v27.97Zm-16.57,5.47c1.77,0,2.66-2.08,2.66-6.25v-25c0-4.48-.99-6.72-2.97-6.72h-3.28v37.97h3.59Z"/>
      <path class="cls-1" d="m215.5.94v109.24h-13.91V.94h13.91Z"/>
      <path class="cls-1" d="m255.81,43.44c0,3.34-.52,5.81-1.56,7.42-1.04,1.62-2.34,2.68-3.91,3.2,1.56.42,2.86,1.43,3.91,3.05,1.04,1.62,1.56,4.09,1.56,7.42v29.85c0,2.81-.44,5.21-1.33,7.19-.89,1.98-2.06,3.59-3.52,4.84-1.46,1.25-3.12,2.19-5,2.81-1.88.62-3.8.94-5.78.94h-18.44V.94h18.44c1.98,0,3.91.31,5.78.94,1.88.62,3.54,1.59,5,2.89,1.46,1.3,2.63,3,3.52,5.08.88,2.08,1.33,4.53,1.33,7.34v26.25Zm-16.41,5.47c1.67,0,2.5-2.08,2.5-6.25v-23.44c0-4.48-.94-6.72-2.81-6.72h-3.44v36.41h3.75Zm2.5,16.72c0-4.27-.89-6.41-2.66-6.41h-3.59v39.38h3.28c1.98,0,2.97-2.13,2.97-6.41v-26.57Z"/>
      <path class="cls-1" d="m275.66,12.5v37.97h10.47v10.31h-10.47v37.82h14.38v11.56h-28.29V.94h27.19v11.56h-13.28Z"/>
      <path class="cls-1" d="m328.79,12.5h-10.78v97.67h-13.91V12.5h-10.78V.94h35.47v11.56Z"/>
      <path class="cls-1" d="m347.07,12.5v37.97h10.47v10.31h-10.47v37.82h14.38v11.56h-28.29V.94h27.19v11.56h-13.28Z"/>
    </g>
  </g>
</svg>