<?xml version="1.0" encoding="UTF-8"?>
<svg id="Capa_2" data-name="Capa 2" xmlns="http://www.w3.org/2000/svg" viewBox="0 0 205.16 32.72">
  <defs>
    <style>
      .cls-1 {
        fill: #f4f4f4;
      }

      .cls-1, .cls-2 {
        stroke-width: 0px;
      }

      .cls-2 {
        fill: #1c1c1c;
      }
    </style>
  </defs>
  <g id="a">
    <g>
      <path class="cls-2" d="m56.11,13.92v-7.76c0-.77-.09-1.3-.27-1.6s-.43-.44-.75-.44h-.18c-.33,0-.58.16-.75.46-.18.31-.27.85-.27,1.62v3.73c0,1.45.29,2.69.89,3.73.59,1.04,1.24,2.03,1.95,2.99.71.96,1.36,1.97,1.95,3.02s.89,2.31.89,3.79v4.79c0,.8-.12,1.48-.36,2.04s-.55,1.02-.93,1.38c-.38.35-.83.62-1.33.8s-1.02.27-1.55.27h-.67c-.53,0-1.05-.08-1.55-.24-.5-.16-.96-.43-1.38-.8-.41-.37-.75-.83-1-1.4s-.38-1.24-.38-2.04v-8.29h3.15v7.76c0,.77.12,1.31.35,1.62.24.31.52.47.84.47h.18c.32,0,.6-.16.82-.47s.33-.85.33-1.62v-3.73c0-1.45-.3-2.69-.89-3.73-.59-1.04-1.24-2.03-1.95-2.99-.71-.96-1.36-1.97-1.95-3.02-.59-1.05-.89-2.31-.89-3.79v-4.79c0-.8.13-1.48.38-2.04.25-.56.58-1.02.98-1.38.4-.35.85-.62,1.35-.8.5-.18,1-.27,1.51-.27h.44c.53,0,1.04.09,1.53.27.49.18.93.44,1.33.8.4.36.72.81.95,1.38.24.56.35,1.24.35,2.04v8.25h-3.15Z"/>
      <path class="cls-2" d="m67.15,21.02v11.44h-3.46v-11.44l-3.33-19.56h3.46l1.53,11.66h.13l1.53-11.66h3.46l-3.33,19.56Z"/>
      <path class="cls-2" d="m76.99,13.92v-7.76c0-.77-.09-1.3-.27-1.6s-.43-.44-.75-.44h-.18c-.33,0-.58.16-.75.46-.18.31-.27.85-.27,1.62v3.73c0,1.45.29,2.69.89,3.73.59,1.04,1.24,2.03,1.95,2.99.71.96,1.36,1.97,1.95,3.02s.89,2.31.89,3.79v4.79c0,.8-.12,1.48-.36,2.04s-.55,1.02-.93,1.38c-.38.35-.83.62-1.33.8s-1.02.27-1.55.27h-.67c-.53,0-1.05-.08-1.55-.24-.5-.16-.96-.43-1.38-.8-.41-.37-.75-.83-1-1.4s-.38-1.24-.38-2.04v-8.29h3.15v7.76c0,.77.12,1.31.35,1.62.24.31.52.47.84.47h.18c.32,0,.6-.16.82-.47s.33-.85.33-1.62v-3.73c0-1.45-.3-2.69-.89-3.73-.59-1.04-1.24-2.03-1.95-2.99-.71-.96-1.36-1.97-1.95-3.02-.59-1.05-.89-2.31-.89-3.79v-4.79c0-.8.13-1.48.38-2.04.25-.56.58-1.02.98-1.38.4-.35.85-.62,1.35-.8.5-.18,1-.27,1.51-.27h.44c.53,0,1.04.09,1.53.27.49.18.93.44,1.33.8.4.36.72.81.95,1.38.24.56.35,1.24.35,2.04v8.25h-3.15Z"/>
      <path class="cls-2" d="m90.7,4.38h-2.97v28.07h-3.46V4.38h-3.02V1.46h9.45v2.93Z"/>
      <path class="cls-2" d="m95,4.38v11.27h3.02v2.62h-3.02v11.27h4.12v2.93h-7.58V1.46h7.32v2.93h-3.86Z"/>
      <path class="cls-2" d="m112.96,1.46v31h-2.88V12.19h-.04l-2.22,20.27h-2.53l-2.17-20.27h-.09v20.27h-2.88V1.46h4.48l1.86,17.7h.09l1.95-17.7h4.43Z"/>
      <path class="cls-2" d="m123.29,32.72c-.5,0-1-.09-1.51-.27s-.95-.44-1.35-.8c-.4-.36-.72-.81-.95-1.38-.24-.56-.36-1.24-.36-2.04V5.67c0-.8.12-1.48.36-2.04.24-.56.55-1.02.95-1.38.4-.35.85-.62,1.35-.8.5-.18,1-.27,1.51-.27h.8c.5,0,1,.09,1.51.27.5.18.95.44,1.35.8.4.36.72.81.95,1.38.24.56.36,1.24.36,2.04v22.58c0,.8-.12,1.48-.36,2.04s-.55,1.02-.95,1.38c-.4.35-.85.62-1.35.8-.5.18-1.01.27-1.51.27h-.8Zm.31-28.61c-.68,0-1.02.69-1.02,2.08v21.51c0,.77.09,1.31.27,1.62s.43.47.75.47h.18c.33,0,.58-.16.75-.47s.27-.85.27-1.62V6.2c0-1.39-.34-2.08-1.02-2.08h-.18Z"/>
      <path class="cls-2" d="m133.1,4.38v11.27h3.02v2.62h-3.02v14.19h-3.46V1.46h7.32v2.93h-3.86Z"/>
      <path class="cls-2" d="m148.31,24.25h-2.44l-.67,8.21h-2.97l2.75-31h4.44l2.93,31h-3.33l-.71-8.21Zm-2.22-2.57h2l-.93-10.64h-.13l-.93,10.64Z"/>
      <path class="cls-2" d="m157.93,32.46V1.46h4.94c.53,0,1.04.08,1.54.24.5.16.95.42,1.35.78.4.36.71.81.95,1.35.24.55.35,1.22.35,2.02v22.22c0,.8-.12,1.47-.35,2.02-.24.55-.55,1-.95,1.35-.4.36-.85.61-1.35.78-.5.16-1.02.24-1.54.24h-4.94Zm3.46-28.07v25.15h1.24c.29,0,.53-.14.71-.42.18-.28.27-.8.27-1.57V6.38c0-.74-.09-1.26-.27-1.55-.18-.29-.41-.44-.71-.44h-1.24Z"/>
      <path class="cls-2" d="m172.57,32.72c-.5,0-1-.09-1.51-.27s-.95-.44-1.35-.8c-.4-.36-.72-.81-.95-1.38-.24-.56-.36-1.24-.36-2.04V5.67c0-.8.12-1.48.36-2.04.24-.56.55-1.02.95-1.38.4-.35.85-.62,1.35-.8.5-.18,1-.27,1.51-.27h.8c.5,0,1,.09,1.51.27.5.18.95.44,1.35.8.4.36.72.81.95,1.38.24.56.36,1.24.36,2.04v22.58c0,.8-.12,1.48-.36,2.04s-.55,1.02-.95,1.38c-.4.35-.85.62-1.35.8-.5.18-1.01.27-1.51.27h-.8Zm.31-28.61c-.68,0-1.02.69-1.02,2.08v21.51c0,.77.09,1.31.27,1.62s.43.47.75.47h.18c.33,0,.58-.16.75-.47s.27-.85.27-1.62V6.2c0-1.39-.34-2.08-1.02-2.08h-.18Z"/>
      <path class="cls-2" d="m180.64,32.46l-2.31-31h3.33l1.29,18.94h.09l1.73-18.94h2.75l1.86,18.94h.09l1.33-18.94h3.02l-2.31,31h-3.37l-1.95-17.21h-.04l-1.68,17.21h-3.81Z"/>
      <path class="cls-2" d="m201.3,32.46l-3.68-20.27h-.09v20.27h-2.88V1.46h3.9l3.46,19.87V1.46h3.15v31h-3.86Z"/>
    </g>
    <g>
      <path class="cls-1" d="m17.01,7.79c-.56-.56-1.47-.56-2.03,0s-.56,1.47,0,2.03l4.97,4.97h-10.92c-.79,0-1.44.64-1.44,1.44s.64,1.44,1.44,1.44h10.96s-4.97,4.97-4.97,4.97c-.56.56-.56,1.47,0,2.03.28.28.65.42,1.02.42s.74-.14,1.02-.42l8.42-8.42-8.46-8.46Z"/>
      <path class="cls-1" d="m16.23,32.46C7.28,32.46,0,25.18,0,16.23S7.28,0,16.23,0c8.95,0,16.23,7.28,16.23,16.23s-7.28,16.23-16.23,16.23Zm0-29.58c-7.36,0-13.36,5.99-13.36,13.36,0,7.36,5.99,13.36,13.36,13.36,7.36,0,13.36-5.99,13.36-13.36,0-7.36-5.99-13.36-13.36-13.36Z"/>
    </g>
  </g>
</svg>