<?xml version="1.0" encoding="UTF-8"?>
<svg id="Capa_2" data-name="Capa 2" xmlns="http://www.w3.org/2000/svg" viewBox="0 0 39.43 39.43">
  <defs>
    <style>
      .cls-1 {
        fill: #bfff0a;
      }

      .cls-1, .cls-2 {
        stroke-width: 0px;
      }

      .cls-2 {
        fill: #1c1c1c;
      }
    </style>
  </defs>
  <g id="a">
    <g>
      <circle class="cls-2" cx="19.71" cy="19.71" r="19.71"/>
      <path class="cls-1" d="m28.22,17.6h0c-.18.02-.36.03-.55.03-2,0-3.86-1.01-4.95-2.68v9.12c0,3.72-3.02,6.74-6.74,6.74s-6.74-3.02-6.74-6.74,3.02-6.74,6.74-6.74c.14,0,.28.01.42.02v3.32c-.14-.02-.27-.04-.42-.04-1.9,0-3.44,1.54-3.44,3.44s1.54,3.44,3.44,3.44,3.58-1.5,3.58-3.4l.03-15.48h3.18c.3,2.85,2.6,5.07,5.45,5.28v3.69Z"/>
    </g>
  </g>
</svg>