<?xml version="1.0" encoding="UTF-8"?>
<svg id="Capa_2" data-name="Capa 2" xmlns="http://www.w3.org/2000/svg" viewBox="0 0 405.66 91.94">
  <defs>
    <style>
      .cls-1 {
        fill: #44d62d;
      }

      .cls-1, .cls-2 {
        stroke-width: 0px;
      }

      .cls-2 {
        fill: #1c1c1c;
      }
    </style>
  </defs>
  <g id="a">
    <g>
      <path class="cls-1" d="m246.62,55.97v-7.76c0-.77-.09-1.3-.27-1.6s-.43-.44-.75-.44h-.18c-.33,0-.58.16-.75.46-.18.31-.27.85-.27,1.62v3.73c0,1.45.29,2.69.89,3.73.59,1.04,1.24,2.03,1.95,2.99.71.96,1.36,1.97,1.95,3.02s.89,2.31.89,3.79v4.79c0,.8-.12,1.48-.36,2.04s-.55,1.02-.93,1.38c-.38.35-.83.62-1.33.8s-1.02.27-1.55.27h-.67c-.53,0-1.05-.08-1.55-.24-.5-.16-.96-.43-1.38-.8-.41-.37-.75-.83-1-1.4s-.38-1.24-.38-2.04v-8.29h3.15v7.76c0,.77.12,1.31.35,1.62.24.31.52.47.84.47h.18c.32,0,.6-.16.82-.47s.33-.85.33-1.62v-3.73c0-1.45-.3-2.69-.89-3.73-.59-1.04-1.24-2.03-1.95-2.99-.71-.96-1.36-1.97-1.95-3.02-.59-1.05-.89-2.31-.89-3.79v-4.79c0-.8.13-1.48.38-2.04.25-.56.58-1.02.98-1.38.4-.35.85-.62,1.35-.8.5-.18,1-.27,1.51-.27h.44c.53,0,1.04.09,1.53.27.49.18.93.44,1.33.8.4.36.72.81.95,1.38.24.56.35,1.24.35,2.04v8.25h-3.15Z"/>
      <path class="cls-1" d="m258.33,63.06v11.44h-3.46v-11.44l-3.33-19.56h3.46l1.53,11.66h.13l1.53-11.66h3.46l-3.33,19.56Z"/>
      <path class="cls-1" d="m268.84,55.97v-7.76c0-.77-.09-1.3-.27-1.6s-.43-.44-.75-.44h-.18c-.33,0-.58.16-.75.46-.18.31-.27.85-.27,1.62v3.73c0,1.45.29,2.69.89,3.73.59,1.04,1.24,2.03,1.95,2.99.71.96,1.36,1.97,1.95,3.02s.89,2.31.89,3.79v4.79c0,.8-.12,1.48-.36,2.04s-.55,1.02-.93,1.38c-.38.35-.83.62-1.33.8s-1.02.27-1.55.27h-.67c-.53,0-1.05-.08-1.55-.24-.5-.16-.96-.43-1.38-.8-.41-.37-.75-.83-1-1.4s-.38-1.24-.38-2.04v-8.29h3.15v7.76c0,.77.12,1.31.35,1.62.24.31.52.47.84.47h.18c.32,0,.6-.16.82-.47s.33-.85.33-1.62v-3.73c0-1.45-.3-2.69-.89-3.73-.59-1.04-1.24-2.03-1.95-2.99-.71-.96-1.36-1.97-1.95-3.02-.59-1.05-.89-2.31-.89-3.79v-4.79c0-.8.13-1.48.38-2.04.25-.56.58-1.02.98-1.38.4-.35.85-.62,1.35-.8.5-.18,1-.27,1.51-.27h.44c.53,0,1.04.09,1.53.27.49.18.93.44,1.33.8.4.36.72.81.95,1.38.24.56.35,1.24.35,2.04v8.25h-3.15Z"/>
      <path class="cls-1" d="m283.21,46.43h-2.97v28.07h-3.46v-28.07h-3.02v-2.93h9.45v2.93Z"/>
      <path class="cls-1" d="m288.18,46.43v11.27h3.02v2.62h-3.02v11.27h4.12v2.93h-7.58v-31h7.32v2.93h-3.86Z"/>
      <path class="cls-1" d="m306.8,43.5v31h-2.88v-20.27h-.04l-2.22,20.27h-2.53l-2.17-20.27h-.09v20.27h-2.88v-31h4.48l1.86,17.7h.09l1.95-17.7h4.43Z"/>
      <path class="cls-1" d="m318.47,74.77c-.5,0-1-.09-1.51-.27s-.95-.44-1.35-.8c-.4-.36-.72-.81-.95-1.38-.24-.56-.36-1.24-.36-2.04v-22.58c0-.8.12-1.48.36-2.04.24-.56.55-1.02.95-1.38.4-.35.85-.62,1.35-.8.5-.18,1-.27,1.51-.27h.8c.5,0,1,.09,1.51.27.5.18.95.44,1.35.8.4.36.72.81.95,1.38.24.56.36,1.24.36,2.04v22.58c0,.8-.12,1.48-.36,2.04s-.55,1.02-.95,1.38c-.4.35-.85.62-1.35.8-.5.18-1.01.27-1.51.27h-.8Zm.31-28.61c-.68,0-1.02.69-1.02,2.08v21.51c0,.77.09,1.31.27,1.62s.43.47.75.47h.18c.33,0,.58-.16.75-.47s.27-.85.27-1.62v-21.51c0-1.39-.34-2.08-1.02-2.08h-.18Z"/>
      <path class="cls-1" d="m328.93,46.43v11.27h3.02v2.62h-3.02v14.19h-3.46v-31h7.32v2.93h-3.86Z"/>
      <path class="cls-1" d="m345.48,66.3h-2.44l-.67,8.21h-2.97l2.75-31h4.44l2.93,31h-3.33l-.71-8.21Zm-2.22-2.57h2l-.93-10.64h-.13l-.93,10.64Z"/>
      <path class="cls-1" d="m356.43,74.5v-31h4.94c.53,0,1.04.08,1.54.24.5.16.95.42,1.35.78.4.36.71.81.95,1.35.24.55.35,1.22.35,2.02v22.22c0,.8-.12,1.47-.35,2.02-.24.55-.55,1-.95,1.35-.4.36-.85.61-1.35.78-.5.16-1.02.24-1.54.24h-4.94Zm3.46-28.07v25.15h1.24c.29,0,.53-.14.71-.42.18-.28.27-.8.27-1.57v-21.16c0-.74-.09-1.26-.27-1.55-.18-.29-.41-.44-.71-.44h-1.24Z"/>
      <path class="cls-1" d="m371.73,74.77c-.5,0-1-.09-1.51-.27s-.95-.44-1.35-.8c-.4-.36-.72-.81-.95-1.38-.24-.56-.36-1.24-.36-2.04v-22.58c0-.8.12-1.48.36-2.04.24-.56.55-1.02.95-1.38.4-.35.85-.62,1.35-.8.5-.18,1-.27,1.51-.27h.8c.5,0,1,.09,1.51.27.5.18.95.44,1.35.8.4.36.72.81.95,1.38.24.56.36,1.24.36,2.04v22.58c0,.8-.12,1.48-.36,2.04s-.55,1.02-.95,1.38c-.4.35-.85.62-1.35.8-.5.18-1.01.27-1.51.27h-.8Zm.31-28.61c-.68,0-1.02.69-1.02,2.08v21.51c0,.77.09,1.31.27,1.62s.43.47.75.47h.18c.33,0,.58-.16.75-.47s.27-.85.27-1.62v-21.51c0-1.39-.34-2.08-1.02-2.08h-.18Z"/>
      <path class="cls-1" d="m380.47,74.5l-2.31-31h3.33l1.29,18.94h.09l1.73-18.94h2.75l1.86,18.94h.09l1.33-18.94h3.02l-2.31,31h-3.37l-1.95-17.21h-.04l-1.68,17.21h-3.81Z"/>
      <path class="cls-1" d="m401.8,74.5l-3.68-20.27h-.09v20.27h-2.88v-31h3.9l3.46,19.87v-19.87h3.15v31h-3.86Z"/>
    </g>
    <g>
      <path class="cls-1" d="m10.57,75.14c-1.27,0-2.54-.21-3.8-.63-1.27-.42-2.41-1.07-3.43-1.96-1.02-.88-1.83-2.02-2.43-3.43-.6-1.41-.9-3.06-.9-4.97V10.99c0-1.9.3-3.56.9-4.97.6-1.41,1.41-2.55,2.43-3.43,1.02-.88,2.17-1.53,3.43-1.96,1.27-.42,2.54-.63,3.8-.63h1.9c1.34,0,2.64.21,3.91.63,1.27.42,2.39,1.08,3.38,1.96.99.88,1.78,2.03,2.38,3.43.6,1.41.9,3.06.9,4.97v53.16c0,1.9-.3,3.56-.9,4.97-.6,1.41-1.39,2.55-2.38,3.43-.99.88-2.11,1.53-3.38,1.96-1.27.42-2.57.63-3.91.63h-1.9Zm.74-67.32c-1.27,0-1.9,1.52-1.9,4.54v50.41c0,3.03.63,4.54,1.9,4.54h.42c1.27,0,1.9-1.51,1.9-4.54V12.36c0-3.03-.63-4.54-1.9-4.54h-.42Z"/>
      <path class="cls-1" d="m37.94,33.18c1.06,0,1.78-.49,2.17-1.48.39-.99.58-2.29.58-3.91v-15.43c0-1.69-.16-2.87-.48-3.54-.32-.67-.79-1-1.43-1h-.42c-.63,0-1.11.35-1.43,1.06-.32.71-.48,1.87-.48,3.49v18.18h-9.41V10.99c0-1.9.3-3.56.9-4.97.6-1.41,1.41-2.55,2.43-3.43,1.02-.88,2.17-1.53,3.43-1.96,1.27-.42,2.54-.63,3.8-.63h1.9c1.34,0,2.64.21,3.91.63,1.27.42,2.39,1.08,3.38,1.96.99.88,1.78,2.03,2.38,3.43.6,1.41.9,3.06.9,4.97v15.64c0,3.17-.74,5.5-2.22,6.97s-3.24,2.43-5.28,2.85c2.04.35,3.8,1.18,5.28,2.48,1.48,1.3,2.22,3.51,2.22,6.6v18.6c0,1.9-.3,3.56-.9,4.97-.6,1.41-1.39,2.55-2.38,3.43-.99.88-2.11,1.53-3.38,1.96-1.27.42-2.57.63-3.91.63h-1.9c-1.27,0-2.54-.21-3.8-.63-1.27-.42-2.41-1.07-3.43-1.96-1.02-.88-1.83-2.02-2.43-3.43-.6-1.41-.9-3.06-.9-4.97v-19.45h9.41v18.18c0,1.62.16,2.77.48,3.43.32.67.79,1,1.43,1h.42c.63,0,1.11-.33,1.43-1,.32-.67.48-1.85.48-3.54v-17.44c0-1.62-.2-2.92-.58-3.91-.39-.99-1.11-1.48-2.17-1.48h-2.85v-6.76h2.85Z"/>
    </g>
    <g>
      <path class="cls-2" d="m92.88,8.45h-7.29v66.05h-9.41V8.45h-7.29V.63h23.99v7.82Z"/>
      <path class="cls-2" d="m99.22,74.82c-2.75,0-5-.95-6.76-2.85-1.76-1.9-2.64-4.47-2.64-7.71v-31.81c0-3.24.88-5.81,2.64-7.71,1.76-1.9,4.02-2.85,6.76-2.85h1.9c2.75,0,5.02.95,6.82,2.85s2.69,4.47,2.69,7.71v31.81c0,3.24-.9,5.81-2.69,7.71s-4.07,2.85-6.82,2.85h-1.9Zm.95-45.65c-1.13,0-1.69,1.16-1.69,3.49v31.39c0,2.33.56,3.49,1.69,3.49h.21c1.06,0,1.59-1.16,1.59-3.49v-31.39c0-2.33-.53-3.49-1.59-3.49h-.21Z"/>
      <path class="cls-2" d="m127.97,47.03l8.35,27.48h-8.67l-3.91-14.06-4.02,14.06h-7.82l7.82-26.53-7.61-25.79h8.45l3.49,12.05,3.49-12.05h7.82l-7.4,24.83Z"/>
      <path class="cls-2" d="m147.94,8.45v10.15h-8.67v-10.15h8.67Zm0,13.74v52.31h-8.67V22.19h8.67Z"/>
      <path class="cls-2" d="m163.79,43.75v-11.1c0-2.33-.53-3.49-1.59-3.49h-.21c-1.13,0-1.69,1.16-1.69,3.49v31.39c0,2.33.53,3.49,1.59,3.49h.32c1.06,0,1.59-1.16,1.59-3.49v-11.31h8.67v11.41c0,3.38-.9,6.01-2.69,7.87-1.8,1.87-4.07,2.8-6.82,2.8h-2.01c-2.68,0-4.9-.95-6.66-2.85-1.76-1.9-2.64-4.51-2.64-7.82v-31.6c0-3.38.88-6.01,2.64-7.87,1.76-1.87,4.02-2.8,6.76-2.8h1.9c2.75,0,5.02.93,6.82,2.8,1.8,1.87,2.69,4.46,2.69,7.77v11.31h-8.67Z"/>
      <path class="cls-2" d="m184.93,8.45v10.15h-8.67v-10.15h8.67Zm0,13.74v52.31h-8.67V22.19h8.67Z"/>
      <path class="cls-2" d="m199.3,5.07v17.12h4.02v7.29h-4.02v34.77c0,1.34.36,2.33,1.08,2.96.72.63,1.7.78,2.93.42v6.97c-2.33.35-4.3.3-5.92-.16-1.62-.46-2.92-1.16-3.91-2.11-.99-.95-1.71-2.13-2.17-3.54-.46-1.41-.69-2.92-.69-4.54V29.48h-2.43v-7.29h2.43V5.92l8.67-.85Z"/>
      <path class="cls-2" d="m219.69,22.19h7.08l-6.55,69.75h-8.56l2.01-17.44-8.03-52.31h7.93l2.96,28.32h.32l2.85-28.32Z"/>
    </g>
  </g>
</svg>